G04 ================== begin FILE IDENTIFICATION RECORD ==================*
G04 Layout Name:  SHO_B1_N1.brd*
G04 Film Name:    SHO_B1_N1_SILK_BOTTOM*
G04 File Format:  Gerber RS274X*
G04 File Origin:  Cadence Allegro 16.6-S035*
G04 Origin Date:  Thu Apr 06 12:10:23 2017*
G04 *
G04 Layer:  PACKAGE GEOMETRY/SILKSCREEN_BOTTOM*
G04 Layer:  DRAWING FORMAT/OUTLINE*
G04 Layer:  DRAWING FORMAT/TITLE_BLOCK*
G04 Layer:  DRAWING FORMAT/TITLE_DATA*
G04 Layer:  DRAWING FORMAT/REVISION_BLOCK*
G04 Layer:  DRAWING FORMAT/REVISION_DATA*
G04 Layer:  BOARD GEOMETRY/OUTLINE*
G04 Layer:  BOARD GEOMETRY/SILKSCREEN_BOTTOM*
G04 *
G04 Offset:    (0.0000 0.0000)*
G04 Mirror:    No*
G04 Mode:      Positive*
G04 Rotation:  0*
G04 FullContactRelief:  No*
G04 UndefLineWidth:     0.1000*
G04 ================== end FILE IDENTIFICATION RECORD ====================*
%FSLAX55Y55*MOMM*%
%IR0*IPPOS*OFA0.00000B0.00000*MIA0B0*SFA1.00000B1.00000*%
%ADD10C,.1*%
G75*
%LPD*%
G75*
G36*
G01X730000Y390000D02*
Y376000D01*
X731000Y372000D01*
X733000Y366000D01*
X735000Y363000D01*
X736000Y360000D01*
X743000Y353000D01*
X746000Y352000D01*
X748000Y350000D01*
X751000Y349000D01*
X754000D01*
X757000Y348000D01*
X764000D01*
X767000Y349000D01*
X770000D01*
X772000Y350000D01*
X775000Y352000D01*
X778000Y353000D01*
X780000Y355000D01*
X782000Y358000D01*
X784000Y360000D01*
X786000Y363000D01*
X787000Y366000D01*
X789000Y369000D01*
X790000Y372000D01*
Y376000D01*
X791000Y379000D01*
Y387000D01*
X790000Y390000D01*
Y394000D01*
X789000Y397000D01*
X787000Y400000D01*
X786000Y403000D01*
X784000Y406000D01*
X780000Y410000D01*
X778000Y413000D01*
X775000Y414000D01*
X772000Y416000D01*
X770000Y417000D01*
X767000D01*
X764000Y418000D01*
X757000D01*
X754000Y417000D01*
X751000D01*
X748000Y416000D01*
X746000Y414000D01*
X743000Y413000D01*
X741000Y410000D01*
X738000Y408000D01*
X736000Y406000D01*
X735000Y403000D01*
X733000Y400000D01*
X731000Y394000D01*
X730000Y390000D01*
G37*
G36*
G01X658000Y349000D02*
X679000D01*
X686000Y361000D01*
X689000Y367000D01*
X692000Y372000D01*
X694000Y367000D01*
X698000Y361000D01*
X705000Y349000D01*
X726000D01*
X702000Y386000D01*
X722000Y417000D01*
X701000D01*
X698000Y411000D01*
X695000Y406000D01*
X692000Y400000D01*
X686000Y411000D01*
X683000Y417000D01*
X662000D01*
X682000Y386000D01*
X658000Y349000D01*
G37*
G36*
G01X837000Y387000D02*
Y378000D01*
X838000Y375000D01*
Y372000D01*
X839000Y368000D01*
X840000Y365000D01*
X841000Y363000D01*
X843000Y360000D01*
X844000Y358000D01*
X846000Y355000D01*
X848000Y353000D01*
X850000Y352000D01*
X852000Y350000D01*
X855000Y349000D01*
X858000D01*
X860000Y348000D01*
X867000D01*
X869000Y349000D01*
X871000D01*
X875000Y351000D01*
X876000Y352000D01*
X878000Y353000D01*
Y349000D01*
X895000D01*
Y434000D01*
X878000Y443000D01*
Y412000D01*
X876000Y414000D01*
X874000Y415000D01*
X873000Y416000D01*
X871000Y417000D01*
X869000D01*
X867000Y418000D01*
X861000D01*
X858000Y417000D01*
X856000D01*
X853000Y416000D01*
X851000Y415000D01*
X849000Y413000D01*
X847000Y412000D01*
X845000Y410000D01*
X843000Y407000D01*
X842000Y404000D01*
X840000Y401000D01*
X839000Y398000D01*
X838000Y394000D01*
Y391000D01*
X837000Y387000D01*
G37*
G36*
G01X805000Y349000D02*
X823000D01*
Y434000D01*
X805000Y443000D01*
Y349000D01*
G37*
G36*
G01X904000Y409000D02*
Y396000D01*
X905000Y392000D01*
Y387000D01*
X906000Y382000D01*
X908000Y378000D01*
X909000Y374000D01*
X913000Y366000D01*
Y417000D01*
X930000D01*
Y376000D01*
X931000Y373000D01*
Y372000D01*
X933000Y370000D01*
Y368000D01*
X934000D01*
X936000Y366000D01*
X937000D01*
X938000Y365000D01*
X946000D01*
X947000Y366000D01*
X948000D01*
X949000Y367000D01*
X950000D01*
Y368000D01*
X952000Y370000D01*
Y371000D01*
X953000Y373000D01*
Y417000D01*
X971000D01*
Y372000D01*
X970000Y368000D01*
X969000Y365000D01*
Y363000D01*
X967000Y360000D01*
X965000Y356000D01*
X961000Y352000D01*
X955000Y349000D01*
X952000Y348000D01*
X941000D01*
X939000Y349000D01*
X937000D01*
X933000Y351000D01*
X932000Y353000D01*
X930000Y354000D01*
Y349000D01*
X924000D01*
X927000Y347000D01*
X929000Y344000D01*
X932000Y341000D01*
X936000Y339000D01*
X942000Y335000D01*
X946000Y333000D01*
X949000Y331000D01*
X953000Y329000D01*
X973000Y324000D01*
X989000D01*
X997000Y326000D01*
X1000000D01*
X1004000Y327000D01*
X1008000Y329000D01*
X1011000Y330000D01*
X1014000Y332000D01*
X1018000Y333000D01*
X1027000Y339000D01*
X1030000Y342000D01*
X1033000Y344000D01*
X1035000Y347000D01*
X1038000Y349000D01*
X1040000Y352000D01*
X1043000Y355000D01*
X1049000Y364000D01*
X1050000Y368000D01*
X1052000Y371000D01*
X1053000Y375000D01*
X1055000Y378000D01*
X1056000Y382000D01*
Y385000D01*
X1058000Y393000D01*
Y409000D01*
X1057000Y413000D01*
X1056000Y416000D01*
Y420000D01*
X1055000Y424000D01*
X1053000Y427000D01*
X1052000Y431000D01*
X1050000Y434000D01*
X1049000Y438000D01*
X1043000Y447000D01*
X1040000Y450000D01*
X1038000Y453000D01*
X1035000Y455000D01*
X1033000Y458000D01*
X1030000Y460000D01*
X1027000Y463000D01*
X1018000Y469000D01*
X1014000Y470000D01*
X1011000Y472000D01*
X1008000Y473000D01*
X1000000Y475000D01*
X997000Y476000D01*
X989000Y478000D01*
X973000D01*
X965000Y476000D01*
X962000Y475000D01*
X958000Y474000D01*
X955000Y473000D01*
X951000Y472000D01*
X948000Y470000D01*
X944000Y469000D01*
X935000Y463000D01*
X932000Y460000D01*
X929000Y458000D01*
X927000Y455000D01*
X924000Y453000D01*
X922000Y450000D01*
X919000Y447000D01*
X913000Y438000D01*
X912000Y434000D01*
X910000Y431000D01*
X909000Y427000D01*
X908000Y424000D01*
X906000Y420000D01*
Y416000D01*
X905000Y413000D01*
X904000Y409000D01*
G37*
G36*
G01X9403580Y-2836300D02*
X9394690Y-2835850D01*
X9394260Y-2835830D01*
X9392990Y-2835770D01*
X9390930Y-2835660D01*
X9388110Y-2835520D01*
X9384570Y-2835340D01*
X9380370Y-2835130D01*
X9375530Y-2834890D01*
X9370100Y-2834610D01*
X9364110Y-2834310D01*
X9357620Y-2833980D01*
X9352330Y-2833720D01*
X9350660Y-2833460D01*
X9343270Y-2832340D01*
X9335500Y-2831150D01*
X9327380Y-2829910D01*
X9318950Y-2828630D01*
X9310260Y-2827300D01*
X9302570Y-2826130D01*
X9301670Y-2825900D01*
X9293320Y-2823750D01*
X9277510Y-2819690D01*
X9270140Y-2817800D01*
X9263180Y-2816010D01*
X9256670Y-2814340D01*
X9254550Y-2813790D01*
X9250660Y-2812370D01*
X9245190Y-2810370D01*
X9240320Y-2808590D01*
X9236070Y-2807030D01*
X9232490Y-2805730D01*
X9229640Y-2804680D01*
X9227540Y-2803920D01*
X9226260Y-2803450D01*
X9225820Y-2803280D01*
X9208510Y-2796950D01*
X9164710Y-2775870D01*
X9123410Y-2750780D01*
X9084840Y-2721950D01*
X9049270Y-2689620D01*
X9016950Y-2654050D01*
X8988120Y-2615480D01*
X8963030Y-2574180D01*
X8941940Y-2530380D01*
X8925110Y-2484340D01*
X8912770Y-2436310D01*
X8905180Y-2386540D01*
X8902600Y-2335280D01*
X8905180Y-2284130D01*
X8912770Y-2234450D01*
X8925110Y-2186470D01*
X8941940Y-2140460D01*
X8963030Y-2096680D01*
X8988120Y-2055370D01*
X9016950Y-2016780D01*
X9049270Y-1981190D01*
X9084840Y-1948820D01*
X9123410Y-1919950D01*
X9164710Y-1894830D01*
X9208510Y-1873700D01*
X9225820Y-1867360D01*
X9226260Y-1867200D01*
X9227540Y-1866720D01*
X9229640Y-1865960D01*
X9232490Y-1864910D01*
X9236070Y-1863600D01*
X9240320Y-1862040D01*
X9245190Y-1860250D01*
X9250660Y-1858250D01*
X9254550Y-1856830D01*
X9256670Y-1856280D01*
X9263180Y-1854600D01*
X9270140Y-1852810D01*
X9277510Y-1850910D01*
X9285260Y-1848920D01*
X9293320Y-1846840D01*
X9301670Y-1844690D01*
X9302570Y-1844460D01*
X9310260Y-1843290D01*
X9327380Y-1840670D01*
X9335500Y-1839430D01*
X9343270Y-1838240D01*
X9350660Y-1837110D01*
X9352330Y-1836850D01*
X9357620Y-1836590D01*
X9364110Y-1836260D01*
X9370100Y-1835960D01*
X9375530Y-1835680D01*
X9380370Y-1835440D01*
X9384570Y-1835220D01*
X9388110Y-1835040D01*
X9390930Y-1834900D01*
X9392990Y-1834800D01*
X9394260Y-1834730D01*
X9394690Y-1834710D01*
X9403580Y-1834260D01*
X9454830Y-1836850D01*
X9458170Y-1837360D01*
X9469010Y-1839020D01*
X9471540Y-1839410D01*
X9479130Y-1840570D01*
X9491780Y-1842500D01*
X9504600Y-1844460D01*
X9509490Y-1845720D01*
X9511050Y-1846120D01*
X9532260Y-1851580D01*
X9552630Y-1856830D01*
X9560090Y-1859560D01*
X9561920Y-1860230D01*
X9583930Y-1868300D01*
X9588630Y-1870020D01*
X9592980Y-1871620D01*
X9598670Y-1873700D01*
X9602360Y-1875480D01*
X9610470Y-1879390D01*
X9625760Y-1886770D01*
X9630920Y-1889260D01*
X9642470Y-1894830D01*
X9656390Y-1903300D01*
X9658240Y-1904420D01*
X9662000Y-1906710D01*
X9683780Y-1919950D01*
X9689500Y-1924240D01*
X9691210Y-1925520D01*
X9699390Y-1931640D01*
X9713430Y-1942150D01*
X9714830Y-1943190D01*
X9722350Y-1948820D01*
X9729040Y-1954910D01*
X9733800Y-1959230D01*
X9739170Y-1964120D01*
X9757930Y-1981190D01*
X9775410Y-2000440D01*
X9790260Y-2016780D01*
X9819100Y-2055370D01*
X9844190Y-2096680D01*
X9848760Y-2106170D01*
X9865280Y-2140460D01*
X9872550Y-2160310D01*
X9882120Y-2186470D01*
X9894460Y-2234450D01*
X9900930Y-2276760D01*
X9902050Y-2284130D01*
X9904640Y-2335280D01*
X9902050Y-2378000D01*
X9900930Y-2396610D01*
X9894460Y-2431830D01*
X9890080Y-2455710D01*
X9882120Y-2481330D01*
X9872550Y-2512160D01*
X9865280Y-2528460D01*
X9848760Y-2565520D01*
Y-2232410D01*
X9733800D01*
Y-2472430D01*
X9729040Y-2515790D01*
X9722350Y-2530370D01*
X9714830Y-2546750D01*
X9713430Y-2547850D01*
X9699390Y-2558890D01*
X9691210Y-2565320D01*
X9689500Y-2565640D01*
X9683780Y-2566720D01*
X9662000Y-2570810D01*
X9658240Y-2571510D01*
X9656390Y-2571190D01*
X9642470Y-2568770D01*
X9630920Y-2566760D01*
X9625760Y-2565860D01*
X9610470Y-2555010D01*
X9602360Y-2549260D01*
X9598670Y-2540820D01*
X9592980Y-2527840D01*
X9588630Y-2517910D01*
X9583930Y-2469880D01*
Y-2232410D01*
X9469010D01*
Y-2479460D01*
X9471540Y-2526540D01*
X9479130Y-2567320D01*
X9491780Y-2601810D01*
X9504600Y-2622220D01*
X9509490Y-2630010D01*
X9511050Y-2631520D01*
X9532260Y-2651930D01*
X9552630Y-2663390D01*
X9560090Y-2667590D01*
X9561920Y-2668110D01*
X9583930Y-2674390D01*
X9592980Y-2676970D01*
X9598670Y-2677440D01*
X9602360Y-2677750D01*
X9610470Y-2678420D01*
X9625760Y-2679680D01*
X9630920Y-2680100D01*
X9642470Y-2679210D01*
X9656390Y-2678140D01*
X9658240Y-2678000D01*
X9662000Y-2677710D01*
X9683780Y-2672050D01*
X9689500Y-2670560D01*
X9691210Y-2669710D01*
X9699390Y-2665640D01*
X9713430Y-2658650D01*
X9714830Y-2657510D01*
X9722350Y-2651360D01*
X9729040Y-2645880D01*
X9733800Y-2642000D01*
Y-2671210D01*
X9775410D01*
X9757930Y-2688670D01*
X9739170Y-2707410D01*
X9733800Y-2711780D01*
X9729040Y-2715640D01*
X9722350Y-2721090D01*
X9714830Y-2727210D01*
X9713430Y-2728340D01*
X9699390Y-2739770D01*
X9691210Y-2745140D01*
X9689500Y-2746260D01*
X9683780Y-2750010D01*
X9662000Y-2764310D01*
X9658240Y-2766770D01*
X9656390Y-2767990D01*
X9642470Y-2775200D01*
X9630920Y-2781170D01*
X9625760Y-2783850D01*
X9610470Y-2791770D01*
X9602360Y-2794940D01*
X9598670Y-2796390D01*
X9592980Y-2798620D01*
X9588630Y-2800320D01*
X9583930Y-2802160D01*
X9561920Y-2810790D01*
X9560090Y-2811290D01*
X9552630Y-2813340D01*
X9532260Y-2818940D01*
X9511050Y-2824760D01*
X9509490Y-2825010D01*
X9504600Y-2825810D01*
X9491780Y-2827900D01*
X9479130Y-2829960D01*
X9469010Y-2831600D01*
X9458170Y-2833370D01*
X9454830Y-2833550D01*
X9403580Y-2836300D01*
G37*
G36*
G01X10168770Y-2680720D02*
X10164820Y-2680400D01*
X10156290Y-2679700D01*
X10154170Y-2679530D01*
X10147170Y-2678950D01*
X10144020Y-2678690D01*
X10142590Y-2678580D01*
X10141900Y-2678390D01*
X10136890Y-2677060D01*
X10130350Y-2675330D01*
X10126970Y-2674430D01*
X10120270Y-2672650D01*
X10119510Y-2672450D01*
X10118380Y-2672140D01*
X10117430Y-2671690D01*
X10109390Y-2667800D01*
X10108300Y-2667270D01*
X10099990Y-2663260D01*
X10099580Y-2663060D01*
X10097600Y-2662110D01*
X10096190Y-2661420D01*
X10091300Y-2657770D01*
X10091290D01*
X10083450Y-2651920D01*
X10083320Y-2651820D01*
X10076070Y-2646410D01*
Y-2671210D01*
X9961140D01*
Y-2120650D01*
X10076070Y-2062860D01*
Y-2260350D01*
X10083320Y-2255020D01*
X10083450Y-2254920D01*
X10091290Y-2249160D01*
X10091300Y-2249150D01*
X10096190Y-2245560D01*
X10097600Y-2244520D01*
X10099580Y-2243530D01*
X10099990Y-2243330D01*
X10108300Y-2239180D01*
X10109390Y-2238630D01*
X10117430Y-2234620D01*
X10118380Y-2234150D01*
X10119510Y-2233590D01*
X10120270Y-2233210D01*
X10126970Y-2231290D01*
X10130350Y-2230330D01*
X10136890Y-2228460D01*
X10141900Y-2227030D01*
X10142590Y-2226830D01*
X10144020Y-2226420D01*
X10147170Y-2226130D01*
X10154170Y-2225490D01*
X10156290Y-2225300D01*
X10164820Y-2224520D01*
X10168770Y-2224160D01*
X10170240Y-2224300D01*
X10172770Y-2224550D01*
X10177470Y-2225000D01*
X10180140Y-2225260D01*
X10184170Y-2225640D01*
X10186930Y-2225910D01*
X10190330Y-2226240D01*
X10193130Y-2226510D01*
X10195960Y-2226780D01*
X10198750Y-2227050D01*
X10201050Y-2227270D01*
X10203780Y-2227530D01*
X10204500Y-2227600D01*
X10205610Y-2227960D01*
X10207010Y-2228410D01*
X10212070Y-2230030D01*
X10213110Y-2230370D01*
X10218000Y-2231940D01*
X10218470Y-2232090D01*
X10221570Y-2233090D01*
X10221690Y-2233130D01*
X10222760Y-2233470D01*
X10236480Y-2237880D01*
X10240770Y-2240480D01*
X10264760Y-2254960D01*
X10270120Y-2260140D01*
X10289400Y-2278760D01*
X10295120Y-2287810D01*
X10311160Y-2313180D01*
X10314390Y-2321670D01*
X10326860Y-2354500D01*
X10328300Y-2361790D01*
X10336370Y-2402720D01*
X10336730Y-2408930D01*
X10339560Y-2457820D01*
X10336730Y-2505340D01*
X10336370Y-2507160D01*
X10328300Y-2547850D01*
X10326860Y-2551730D01*
X10314390Y-2585360D01*
X10311160Y-2590810D01*
X10295120Y-2617880D01*
X10270120Y-2645370D01*
X10264760Y-2648960D01*
X10240770Y-2665010D01*
X10236480Y-2666510D01*
X10222760Y-2671300D01*
X10221690Y-2671670D01*
X10221570Y-2671710D01*
X10218470Y-2672790D01*
X10218000Y-2672960D01*
X10213110Y-2674660D01*
X10212070Y-2675030D01*
X10207010Y-2676790D01*
X10205610Y-2676940D01*
X10204500Y-2677050D01*
X10203780Y-2677130D01*
X10201050Y-2677410D01*
X10198750Y-2677640D01*
X10195960Y-2677930D01*
X10193130Y-2678220D01*
X10190330Y-2678510D01*
X10186930Y-2678860D01*
X10184170Y-2679140D01*
X10180140Y-2679550D01*
X10177470Y-2679830D01*
X10172770Y-2680310D01*
X10170240Y-2680570D01*
X10168770Y-2680720D01*
G37*
G36*
G01X10434790Y-2671210D02*
Y-2120650D01*
X10549780Y-2062860D01*
Y-2671210D01*
X10434790D01*
G37*
G36*
G01X10840620Y-2680720D02*
X10830900Y-2680250D01*
X10821790Y-2679820D01*
X10821780D01*
X10819620Y-2679710D01*
X10813300Y-2678760D01*
X10813260Y-2678750D01*
X10805430Y-2677570D01*
X10805350Y-2677560D01*
X10799530Y-2676690D01*
X10798030Y-2676290D01*
X10791570Y-2674600D01*
X10791310Y-2674530D01*
X10785590Y-2673030D01*
X10785180Y-2672920D01*
X10780350Y-2671650D01*
X10780260Y-2671620D01*
X10779640Y-2671380D01*
X10771090Y-2668080D01*
X10770820Y-2667980D01*
X10764540Y-2665560D01*
X10764460Y-2665530D01*
X10762090Y-2664620D01*
X10760620Y-2663850D01*
X10760610D01*
X10759310Y-2663170D01*
X10744750Y-2655580D01*
X10728340Y-2644560D01*
X10712870Y-2631560D01*
X10698340Y-2616570D01*
X10685370Y-2600060D01*
X10674080Y-2582420D01*
X10664490Y-2563630D01*
X10656600Y-2543720D01*
X10650440Y-2522670D01*
X10646010Y-2500490D01*
X10643350Y-2477170D01*
X10642460Y-2452730D01*
X10643350Y-2428100D01*
X10646010Y-2404640D01*
X10650440Y-2382360D01*
X10656600Y-2361240D01*
X10664490Y-2341280D01*
X10674080Y-2322480D01*
X10685370Y-2304810D01*
X10698340Y-2288290D01*
X10712870Y-2273110D01*
X10728340Y-2259950D01*
X10744750Y-2248820D01*
X10759310Y-2241170D01*
X10760610Y-2240490D01*
X10760620Y-2240480D01*
X10762090Y-2239710D01*
X10765120Y-2238560D01*
X10770820Y-2236320D01*
X10771090Y-2236220D01*
X10779640Y-2232900D01*
X10780260Y-2232660D01*
X10780350Y-2232630D01*
X10785180Y-2231360D01*
X10785590Y-2231250D01*
X10791310Y-2229740D01*
X10791570Y-2229670D01*
X10798030Y-2227970D01*
X10799530Y-2227570D01*
X10805350Y-2226690D01*
X10805430Y-2226680D01*
X10813260Y-2225500D01*
X10813300Y-2225490D01*
X10819620Y-2224530D01*
X10821780Y-2224430D01*
X10821790D01*
X10840620Y-2223520D01*
X10850120Y-2223980D01*
X10850320Y-2223990D01*
X10859150Y-2224420D01*
X10859430Y-2224430D01*
X10861590Y-2224530D01*
X10867670Y-2225450D01*
X10867940Y-2225490D01*
X10875670Y-2226660D01*
X10875850Y-2226690D01*
X10881670Y-2227570D01*
X10883140Y-2227960D01*
X10883170Y-2227970D01*
X10889890Y-2229740D01*
X10890050Y-2229780D01*
X10896010Y-2231360D01*
X10896400Y-2231460D01*
X10900830Y-2232630D01*
X10901530Y-2232900D01*
X10902150Y-2233140D01*
X10910310Y-2236280D01*
X10911220Y-2236650D01*
X10917250Y-2239000D01*
X10917320Y-2239030D01*
X10919090Y-2239710D01*
X10921170Y-2240800D01*
X10921180Y-2240810D01*
X10922470Y-2241490D01*
X10936420Y-2248820D01*
X10952830Y-2259950D01*
X10968300Y-2273110D01*
X10982830Y-2288290D01*
X10996020Y-2304810D01*
X11007470Y-2322480D01*
X11017180Y-2341280D01*
X11025140Y-2361240D01*
X11031340Y-2382360D01*
X11035770Y-2404640D01*
X11038440Y-2428100D01*
X11039330Y-2452730D01*
X11038440Y-2477170D01*
X11035770Y-2500490D01*
X11031340Y-2522670D01*
X11025140Y-2543720D01*
X11017180Y-2563630D01*
X11007470Y-2582420D01*
X10996020Y-2600060D01*
X10982830Y-2616570D01*
X10968300Y-2631560D01*
X10952830Y-2644560D01*
X10936420Y-2655580D01*
X10922470Y-2662850D01*
X10921180Y-2663530D01*
X10921170D01*
X10919090Y-2664620D01*
X10917320Y-2665300D01*
X10917250Y-2665330D01*
X10910960Y-2667750D01*
X10910700Y-2667850D01*
X10902150Y-2671150D01*
X10901530Y-2671380D01*
X10900830Y-2671650D01*
X10896400Y-2672820D01*
X10896010Y-2672920D01*
X10890050Y-2674480D01*
X10889890Y-2674530D01*
X10883170Y-2676290D01*
X10883140Y-2676300D01*
X10881670Y-2676690D01*
X10875850Y-2677560D01*
X10875670Y-2677590D01*
X10867940Y-2678760D01*
X10867670Y-2678800D01*
X10861590Y-2679710D01*
X10859430Y-2679820D01*
X10859150Y-2679830D01*
X10850320Y-2680250D01*
X10850120Y-2680260D01*
X10840620Y-2680720D01*
G37*
G36*
G01X11063450Y-2671210D02*
X11086940Y-2635200D01*
X11200010Y-2461900D01*
X11218410Y-2433710D01*
X11200010Y-2405540D01*
X11086940Y-2232410D01*
X11223510D01*
X11244450Y-2268600D01*
X11284420Y-2339090D01*
X11301590Y-2308850D01*
X11324450Y-2268600D01*
X11345390Y-2232410D01*
X11482580D01*
X11350490Y-2433710D01*
X11368890Y-2461790D01*
X11506070Y-2671210D01*
X11368890D01*
X11350490Y-2640980D01*
X11345390Y-2632600D01*
X11324450Y-2598180D01*
X11301590Y-2559500D01*
X11284420Y-2527070D01*
X11270170Y-2554980D01*
X11244450Y-2598180D01*
X11223510Y-2632600D01*
X11218410Y-2640980D01*
X11200010Y-2671210D01*
X11063450D01*
G37*
%LPC*%
G75*
G36*
G01X763000Y365000D02*
X757000D01*
X756000Y366000D01*
X755000D01*
X752000Y369000D01*
X751000Y371000D01*
X749000Y373000D01*
X748000Y376000D01*
Y390000D01*
X749000Y392000D01*
X750000Y393000D01*
Y395000D01*
X755000Y400000D01*
X756000D01*
X757000Y401000D01*
X763000D01*
X764000Y400000D01*
X766000D01*
X770000Y396000D01*
Y395000D01*
X771000Y393000D01*
X772000Y392000D01*
Y390000D01*
X773000Y387000D01*
Y379000D01*
X772000Y376000D01*
Y374000D01*
X771000Y373000D01*
X770000Y371000D01*
Y370000D01*
X766000Y366000D01*
X764000D01*
X763000Y365000D01*
G37*
G36*
G01X871000D02*
X862000D01*
X861000Y366000D01*
X860000D01*
X859000Y367000D01*
Y368000D01*
X857000Y370000D01*
Y371000D01*
X856000Y374000D01*
X855000Y378000D01*
Y386000D01*
X856000Y390000D01*
Y392000D01*
X857000Y394000D01*
Y395000D01*
X858000Y396000D01*
X859000Y398000D01*
X860000Y399000D01*
X861000D01*
X863000Y401000D01*
X871000D01*
X873000Y400000D01*
X875000Y398000D01*
X877000Y397000D01*
X878000Y396000D01*
Y370000D01*
X877000Y369000D01*
X875000Y368000D01*
X873000Y366000D01*
X871000Y365000D01*
G37*
G36*
G01X998000Y419000D02*
X993000D01*
X991000Y420000D01*
X990000D01*
X988000Y421000D01*
X985000Y424000D01*
Y425000D01*
X983000Y427000D01*
Y430000D01*
X982000Y431000D01*
Y433000D01*
X983000Y435000D01*
Y437000D01*
X985000Y439000D01*
Y440000D01*
X989000Y444000D01*
X990000D01*
X991000Y445000D01*
X999000D01*
X1000000Y444000D01*
X1002000D01*
X1005000Y441000D01*
Y440000D01*
X1007000Y438000D01*
Y437000D01*
X1008000Y436000D01*
Y428000D01*
X1007000Y427000D01*
Y426000D01*
X1005000Y424000D01*
Y423000D01*
X1003000Y421000D01*
X1000000Y420000D01*
X999000D01*
X998000Y419000D01*
G37*
G36*
G01X9310260Y-2216530D02*
X9302570Y-2216140D01*
X9301670Y-2216100D01*
X9293320Y-2214830D01*
X9285260Y-2212760D01*
X9277510Y-2209940D01*
X9270140Y-2206410D01*
X9263180Y-2202200D01*
X9256670Y-2197360D01*
X9254550Y-2195440D01*
X9250660Y-2191920D01*
X9245190Y-2185940D01*
X9240320Y-2179450D01*
X9236070Y-2172480D01*
X9232490Y-2165090D01*
X9229640Y-2157320D01*
X9227540Y-2149190D01*
X9226260Y-2140770D01*
X9225820Y-2132070D01*
X9226260Y-2123490D01*
X9227540Y-2115140D01*
X9229640Y-2107070D01*
X9232490Y-2099320D01*
X9236070Y-2091950D01*
X9240320Y-2084990D01*
X9245190Y-2078480D01*
X9250660Y-2072470D01*
X9254550Y-2068940D01*
X9256670Y-2067010D01*
X9263180Y-2062130D01*
X9270140Y-2057880D01*
X9277510Y-2054310D01*
X9285260Y-2051450D01*
X9293320Y-2049360D01*
X9301670Y-2048070D01*
X9302570Y-2048030D01*
X9310260Y-2047630D01*
X9318950Y-2048070D01*
X9327380Y-2049360D01*
X9335500Y-2051450D01*
X9343270Y-2054310D01*
X9350660Y-2057880D01*
X9352330Y-2058900D01*
X9357620Y-2062130D01*
X9364110Y-2067010D01*
X9370100Y-2072470D01*
X9375530Y-2078480D01*
X9380370Y-2084990D01*
X9384570Y-2091950D01*
X9388110Y-2099320D01*
X9390930Y-2107070D01*
X9392990Y-2115140D01*
X9394260Y-2123490D01*
X9394690Y-2132070D01*
X9394260Y-2140770D01*
X9392990Y-2149190D01*
X9390930Y-2157320D01*
X9388110Y-2165090D01*
X9384570Y-2172480D01*
X9380370Y-2179450D01*
X9375530Y-2185940D01*
X9370100Y-2191920D01*
X9364110Y-2197360D01*
X9357620Y-2202200D01*
X9352330Y-2205400D01*
X9350660Y-2206410D01*
X9343270Y-2209940D01*
X9335500Y-2212760D01*
X9327380Y-2214830D01*
X9318950Y-2216100D01*
X9310260Y-2216530D01*
G37*
G36*
G01X10156290Y-2571900D02*
X10154170Y-2572130D01*
X10147170Y-2571790D01*
X10144020Y-2571640D01*
X10142590Y-2571570D01*
X10141900Y-2571540D01*
X10136890Y-2570770D01*
X10130350Y-2569760D01*
X10126970Y-2568840D01*
X10120270Y-2567020D01*
X10119510Y-2566810D01*
X10118380Y-2566350D01*
X10117430Y-2565970D01*
X10109390Y-2562690D01*
X10108300Y-2562080D01*
X10099990Y-2557410D01*
X10099580Y-2557110D01*
X10097600Y-2555640D01*
X10096190Y-2554590D01*
X10091300Y-2550970D01*
X10091290Y-2550960D01*
X10083450Y-2543500D01*
X10083320Y-2543380D01*
X10076070Y-2534650D01*
Y-2368940D01*
X10083320Y-2360600D01*
X10083450Y-2360460D01*
X10091290Y-2353100D01*
X10091300D01*
X10096190Y-2349430D01*
X10097600Y-2348360D01*
X10099580Y-2346880D01*
X10099990Y-2346640D01*
X10108300Y-2341790D01*
X10109390Y-2341310D01*
X10117430Y-2337830D01*
X10118380Y-2337550D01*
X10119510Y-2337210D01*
X10120270Y-2336980D01*
X10126970Y-2335000D01*
X10130350Y-2334420D01*
X10136890Y-2333300D01*
X10141900Y-2333020D01*
X10142590Y-2332980D01*
X10144020Y-2332910D01*
X10147170Y-2332730D01*
X10154170Y-2333110D01*
X10156290Y-2333230D01*
X10164820Y-2334730D01*
X10168770Y-2335970D01*
X10170240Y-2336420D01*
X10172770Y-2337220D01*
X10177470Y-2339440D01*
X10180140Y-2340710D01*
X10184170Y-2343370D01*
X10186930Y-2345200D01*
X10190330Y-2348210D01*
X10193130Y-2350680D01*
X10195960Y-2353950D01*
X10198750Y-2357160D01*
X10201050Y-2360590D01*
X10203780Y-2364640D01*
X10204500Y-2366210D01*
X10205610Y-2368600D01*
X10207010Y-2371640D01*
X10212070Y-2382590D01*
X10213110Y-2386440D01*
X10218000Y-2404530D01*
X10218470Y-2407930D01*
X10221570Y-2430460D01*
X10221690Y-2433430D01*
X10222760Y-2460370D01*
X10221690Y-2486500D01*
X10221570Y-2487330D01*
X10218470Y-2509170D01*
X10218000Y-2510850D01*
X10213110Y-2528380D01*
X10212070Y-2530560D01*
X10207010Y-2541170D01*
X10205610Y-2544110D01*
X10204500Y-2545700D01*
X10203780Y-2546740D01*
X10201050Y-2550670D01*
X10198750Y-2553240D01*
X10195960Y-2556360D01*
X10193130Y-2558780D01*
X10190330Y-2561170D01*
X10186930Y-2563350D01*
X10184170Y-2565110D01*
X10180140Y-2566960D01*
X10177470Y-2568180D01*
X10170240Y-2570380D01*
X10164820Y-2570970D01*
X10156290Y-2571900D01*
G37*
G36*
G01X10840620Y-2569580D02*
X10830900Y-2569050D01*
X10821790Y-2567450D01*
X10821780D01*
X10819620Y-2566780D01*
X10813300Y-2564800D01*
X10813260Y-2564790D01*
X10805430Y-2561130D01*
X10805350Y-2561090D01*
X10799530Y-2557320D01*
X10798180Y-2556450D01*
X10798030Y-2556350D01*
X10791570Y-2550800D01*
X10791310Y-2550570D01*
X10785590Y-2544230D01*
X10785180Y-2543770D01*
X10780350Y-2536960D01*
X10780260Y-2536830D01*
X10779640Y-2535960D01*
X10771090Y-2519790D01*
X10770820Y-2519290D01*
X10764540Y-2500060D01*
X10764460Y-2499820D01*
X10762090Y-2486120D01*
X10760620Y-2477670D01*
X10760610Y-2477610D01*
X10759310Y-2452730D01*
X10760610Y-2427560D01*
X10760620Y-2427380D01*
X10762090Y-2418870D01*
X10764460Y-2405100D01*
X10764540Y-2404650D01*
X10770820Y-2385340D01*
X10771090Y-2384530D01*
X10779640Y-2368200D01*
X10780260Y-2367010D01*
X10780350Y-2366880D01*
X10785180Y-2360010D01*
X10785590Y-2359420D01*
X10791310Y-2353140D01*
X10791570Y-2352850D01*
X10798030Y-2347410D01*
X10798180Y-2347290D01*
X10799530Y-2346440D01*
X10805350Y-2342780D01*
X10805430Y-2342730D01*
X10813260Y-2339210D01*
X10813300Y-2339190D01*
X10819620Y-2337310D01*
X10821780Y-2336670D01*
X10821790D01*
X10830900Y-2335150D01*
X10840620Y-2334640D01*
X10850120Y-2335140D01*
X10850320Y-2335150D01*
X10859150Y-2336620D01*
X10859430Y-2336670D01*
X10861590Y-2337310D01*
X10867670Y-2339110D01*
X10867940Y-2339190D01*
X10875670Y-2342650D01*
X10875850Y-2342730D01*
X10881670Y-2346350D01*
X10883140Y-2347270D01*
X10883170Y-2347290D01*
X10889890Y-2352850D01*
X10890050Y-2353030D01*
X10896010Y-2359420D01*
X10896400Y-2359960D01*
X10900830Y-2366060D01*
X10901530Y-2367010D01*
X10902150Y-2368210D01*
X10910700Y-2384790D01*
X10910960Y-2385600D01*
X10917250Y-2404880D01*
X10917320Y-2405330D01*
X10919090Y-2415490D01*
X10921170Y-2427460D01*
X10921180Y-2427650D01*
X10922470Y-2452730D01*
X10921180Y-2476050D01*
X10921170Y-2476100D01*
X10919090Y-2487600D01*
X10917320Y-2497360D01*
X10917250Y-2497590D01*
X10910960Y-2516520D01*
X10910700Y-2517020D01*
X10902150Y-2533410D01*
X10901530Y-2534320D01*
X10900830Y-2535350D01*
X10896400Y-2541890D01*
X10896010Y-2542340D01*
X10890050Y-2549240D01*
X10889890Y-2549380D01*
X10883170Y-2555430D01*
X10883140Y-2555450D01*
X10881670Y-2556460D01*
X10875850Y-2560420D01*
X10875670Y-2560540D01*
X10867940Y-2564360D01*
X10867670Y-2564500D01*
X10861590Y-2566510D01*
X10859430Y-2567230D01*
X10859150Y-2567320D01*
X10850320Y-2568980D01*
X10850120Y-2569020D01*
X10840620Y-2569580D01*
G37*
%LPD*%
G75*
G54D10*
G01X-8065100Y-6995210D02*
Y14594790D01*
X20065400D01*
Y-6995210D01*
X-8065100D01*
G01X-7315800Y-6322110D02*
Y13997890D01*
X19227200D01*
Y-6322110D01*
X-7315800D01*
G01X-6919900Y13582830D02*
X-6938950Y13595540D01*
X-6961170Y13604000D01*
X-6986570D01*
X-7015150Y13591290D01*
X-7037370Y13570130D01*
X-7053250Y13544730D01*
X-7065950Y13502400D01*
X-7069130Y13464300D01*
X-7062770Y13426200D01*
X-7053250Y13400800D01*
X-7034200Y13375390D01*
X-7011970Y13358460D01*
X-6989750Y13350000D01*
X-6967530D01*
X-6945300Y13358460D01*
X-6926250Y13371160D01*
X-6910370Y13388090D01*
G01X-6735750Y13350000D02*
X-6761150Y13354230D01*
X-6783370Y13371160D01*
X-6802430Y13396560D01*
X-6815130Y13426200D01*
X-6821480Y13460070D01*
Y13493930D01*
X-6815130Y13527800D01*
X-6802430Y13557440D01*
X-6783370Y13582830D01*
X-6761150Y13599770D01*
X-6735750Y13604000D01*
X-6710350Y13599770D01*
X-6688130Y13582830D01*
X-6669070Y13557440D01*
X-6656370Y13527800D01*
X-6650020Y13493930D01*
Y13460070D01*
X-6656370Y13426200D01*
X-6669070Y13396560D01*
X-6688130Y13371160D01*
X-6710350Y13354230D01*
X-6735750Y13350000D01*
G01X-6554770D02*
Y13604000D01*
X-6408730Y13350000D01*
Y13604000D01*
G01X-6288080Y13350000D02*
Y13604000D01*
X-6167420D01*
G01X-6211880Y13481240D02*
X-6288080D01*
G01X-6011850Y13604000D02*
X-5935660D01*
G01X-5973750D02*
Y13350000D01*
G01X-6011850D02*
X-5935660D01*
G01X-5789600D02*
Y13604000D01*
X-5726100D01*
X-5700700Y13591290D01*
X-5681650Y13574370D01*
X-5665770Y13548970D01*
X-5653070Y13519330D01*
X-5649900Y13477000D01*
X-5653070Y13434660D01*
X-5665770Y13405030D01*
X-5681650Y13379630D01*
X-5700700Y13362700D01*
X-5726100Y13350000D01*
X-5789600D01*
G01X-5402250D02*
X-5529250D01*
Y13604000D01*
X-5402250D01*
G01X-5453050Y13481240D02*
X-5529250D01*
G01X-5284770Y13350000D02*
Y13604000D01*
X-5138730Y13350000D01*
Y13604000D01*
G01X-4957750D02*
Y13350000D01*
G01X-5030770Y13604000D02*
X-4884730D01*
G01X-4741850D02*
X-4665660D01*
G01X-4703750D02*
Y13350000D01*
G01X-4741850D02*
X-4665660D01*
G01X-4529130D02*
X-4449750Y13604000D01*
X-4370370Y13350000D01*
G01X-4398950Y13438900D02*
X-4500550D01*
G01X-4259250Y13604000D02*
Y13350000D01*
X-4132250D01*
G01X-3729020Y13434660D02*
X-3646480D01*
G01X-3243250Y13350000D02*
Y13604000D01*
X-3167050D01*
X-3141650Y13591290D01*
X-3122600Y13561670D01*
X-3116250Y13527800D01*
X-3122600Y13493930D01*
X-3138480Y13468530D01*
X-3167050Y13455830D01*
X-3243250D01*
G01X-2989250Y13350000D02*
Y13604000D01*
X-2909880D01*
X-2884480Y13591290D01*
X-2868600Y13574370D01*
X-2862250Y13540500D01*
X-2868600Y13506630D01*
X-2887650Y13485470D01*
X-2909880Y13472760D01*
X-2989250D01*
G01X-2909880D02*
X-2862250Y13350000D01*
G01X-2671750D02*
X-2697150Y13354230D01*
X-2719370Y13371160D01*
X-2738430Y13396560D01*
X-2751130Y13426200D01*
X-2757480Y13460070D01*
Y13493930D01*
X-2751130Y13527800D01*
X-2738430Y13557440D01*
X-2719370Y13582830D01*
X-2697150Y13599770D01*
X-2671750Y13604000D01*
X-2646350Y13599770D01*
X-2624130Y13582830D01*
X-2605070Y13557440D01*
X-2592370Y13527800D01*
X-2586020Y13493930D01*
Y13460070D01*
X-2592370Y13426200D01*
X-2605070Y13396560D01*
X-2624130Y13371160D01*
X-2646350Y13354230D01*
X-2671750Y13350000D01*
G01X-2481250D02*
Y13604000D01*
X-2405050D01*
X-2379650Y13591290D01*
X-2360600Y13561670D01*
X-2354250Y13527800D01*
X-2360600Y13493930D01*
X-2376480Y13468530D01*
X-2405050Y13455830D01*
X-2481250D01*
G01X-2100250Y13350000D02*
X-2227250D01*
Y13604000D01*
X-2100250D01*
G01X-2151050Y13481240D02*
X-2227250D01*
G01X-1973250Y13350000D02*
Y13604000D01*
X-1893880D01*
X-1868480Y13591290D01*
X-1852600Y13574370D01*
X-1846250Y13540500D01*
X-1852600Y13506630D01*
X-1871650Y13485470D01*
X-1893880Y13472760D01*
X-1973250D01*
G01X-1893880D02*
X-1846250Y13350000D01*
G01X-1655750Y13604000D02*
Y13350000D01*
G01X-1728770Y13604000D02*
X-1582730D01*
G01X-1401750Y13350000D02*
Y13464300D01*
X-1465250Y13604000D01*
G01X-1338250D02*
X-1401750Y13464300D01*
G01X-893750Y13350000D02*
X-919150Y13354230D01*
X-941370Y13371160D01*
X-960430Y13396560D01*
X-973130Y13426200D01*
X-979480Y13460070D01*
Y13493930D01*
X-973130Y13527800D01*
X-960430Y13557440D01*
X-941370Y13582830D01*
X-919150Y13599770D01*
X-893750Y13604000D01*
X-868350Y13599770D01*
X-846130Y13582830D01*
X-827070Y13557440D01*
X-814370Y13527800D01*
X-808020Y13493930D01*
Y13460070D01*
X-814370Y13426200D01*
X-827070Y13396560D01*
X-846130Y13371160D01*
X-868350Y13354230D01*
X-893750Y13350000D01*
G01X-700080D02*
Y13604000D01*
X-579420D01*
G01X-623880Y13481240D02*
X-700080D01*
G01X-201600Y13604000D02*
Y13421970D01*
X-188900Y13383860D01*
X-163500Y13358460D01*
X-131750Y13350000D01*
X-100000Y13358460D01*
X-74600Y13383860D01*
X-61900Y13421970D01*
Y13604000D01*
G01X80980Y13434660D02*
X163520D01*
G01X401650Y13485470D02*
X414350Y13498170D01*
X423870Y13519330D01*
X430230Y13548970D01*
X423870Y13574370D01*
X411180Y13591290D01*
X388950Y13604000D01*
X303230D01*
Y13350000D01*
X408000D01*
X430230Y13366930D01*
X442930Y13392330D01*
X449270Y13421970D01*
X442930Y13451590D01*
X423870Y13477000D01*
X401650Y13485470D01*
X303230D01*
G01X566750Y13604000D02*
Y13350000D01*
X693750D01*
G01X884250D02*
X858850Y13354230D01*
X836630Y13371160D01*
X817570Y13396560D01*
X804870Y13426200D01*
X798520Y13460070D01*
Y13493930D01*
X804870Y13527800D01*
X817570Y13557440D01*
X836630Y13582830D01*
X858850Y13599770D01*
X884250Y13604000D01*
X909650Y13599770D01*
X931870Y13582830D01*
X950930Y13557440D01*
X963630Y13527800D01*
X969980Y13493930D01*
Y13460070D01*
X963630Y13426200D01*
X950930Y13396560D01*
X931870Y13371160D01*
X909650Y13354230D01*
X884250Y13350000D01*
G01X1071570D02*
X1204930Y13604000D01*
G01X1071570D02*
X1204930Y13350000D01*
G01X1566870D02*
X1646250Y13604000D01*
X1725630Y13350000D01*
G01X1697050Y13438900D02*
X1595450D01*
G01X1919300Y13477000D02*
X1982800D01*
Y13400800D01*
X1963750Y13375390D01*
X1941520Y13358460D01*
X1909780Y13350000D01*
X1878030Y13358460D01*
X1855800Y13375390D01*
X1836750Y13400800D01*
X1824050Y13430430D01*
X1817700Y13464300D01*
Y13493930D01*
X1824050Y13519330D01*
X1836750Y13548970D01*
X1855800Y13574370D01*
X1874850Y13591290D01*
X1900250Y13604000D01*
X1922470D01*
X1947870Y13595540D01*
X1966930Y13578600D01*
G01X1126000Y-683000D02*
Y517000D01*
X-1874000D01*
Y-683000D01*
X1126000D01*
G01X-885740Y344000D02*
Y407500D01*
X-916900Y344000D01*
Y407500D01*
G01X-949070D02*
X-965330D01*
G01X-957200D02*
Y344000D01*
G01X-949070D02*
X-965330D01*
G01X-997500D02*
Y407500D01*
X-1028660Y344000D01*
Y407500D01*
G01X-1052030Y344000D02*
X-1068960Y407500D01*
X-1085890Y344000D01*
G01X-1079800Y366220D02*
X-1058120D01*
G01X-1116030Y365170D02*
X-1133650D01*
G01X-1186140Y377870D02*
X-1188850Y381040D01*
X-1190880Y386330D01*
X-1192240Y393740D01*
X-1190880Y400090D01*
X-1188170Y404320D01*
X-1183430Y407500D01*
X-1165140D01*
Y344000D01*
X-1187490D01*
X-1192240Y348230D01*
X-1194940Y354580D01*
X-1196300Y361990D01*
X-1194940Y369400D01*
X-1190880Y375750D01*
X-1186140Y377870D01*
X-1165140D01*
G01X-1236600Y344000D02*
Y407500D01*
X-1228470Y394800D01*
G01Y344000D02*
X-1244730D01*
G01X-1333460Y407500D02*
Y361990D01*
X-1336170Y352460D01*
X-1341590Y346120D01*
X-1348360Y344000D01*
X-1355130Y346120D01*
X-1360550Y352460D01*
X-1363260Y361990D01*
Y407500D01*
G01X-1390020Y352460D02*
X-1395430Y347170D01*
X-1401530Y344000D01*
X-1406950D01*
X-1412370Y347170D01*
X-1416430Y352460D01*
X-1418460Y359880D01*
X-1417110Y367280D01*
X-1413720Y373630D01*
X-1407630Y377870D01*
X-1399500Y379980D01*
X-1394760Y384220D01*
X-1392720Y391620D01*
X-1394080Y399030D01*
X-1397470Y404320D01*
X-1402210Y407500D01*
X-1406950D01*
X-1411690Y405380D01*
X-1415760Y400090D01*
G01X-1465540Y377870D02*
X-1468250Y381040D01*
X-1470280Y386330D01*
X-1471640Y393740D01*
X-1470280Y400090D01*
X-1467570Y404320D01*
X-1462830Y407500D01*
X-1444540D01*
Y344000D01*
X-1466890D01*
X-1471640Y348230D01*
X-1474340Y354580D01*
X-1475700Y361990D01*
X-1474340Y369400D01*
X-1470280Y375750D01*
X-1465540Y377870D01*
X-1444540D01*
G01X-1584070Y407500D02*
Y344000D01*
G01Y353520D02*
X-1581360Y348230D01*
X-1577300Y345060D01*
X-1572560Y344000D01*
X-1567140Y346120D01*
X-1563070Y351410D01*
X-1560360Y357760D01*
X-1559690Y365170D01*
X-1560360Y372570D01*
X-1563070Y378930D01*
X-1567140Y384220D01*
X-1572560Y386330D01*
X-1577300Y385270D01*
X-1580690Y383160D01*
X-1584070Y378930D01*
G01X-1627760Y344000D02*
X-1623700Y345060D01*
X-1619630Y349290D01*
X-1616920Y356700D01*
X-1615570Y365170D01*
X-1616920Y373630D01*
X-1619630Y381040D01*
X-1623700Y385270D01*
X-1627760Y386330D01*
X-1631820Y385270D01*
X-1635890Y381040D01*
X-1638600Y373630D01*
X-1639280Y365170D01*
X-1638600Y356700D01*
X-1635890Y349290D01*
X-1631820Y345060D01*
X-1627760Y344000D01*
G01X-1672120D02*
Y386330D01*
G01Y375750D02*
X-1674830Y381040D01*
X-1678900Y385270D01*
X-1684320Y386330D01*
X-1689060Y385270D01*
X-1693120Y381040D01*
X-1695160Y373630D01*
Y344000D01*
G01X-1730040Y328120D02*
X-1734780Y323890D01*
X-1740200Y322830D01*
X-1744940Y323890D01*
X-1749000Y329180D01*
X-1751710Y336590D01*
Y386330D01*
G01Y377870D02*
X-1749000Y382100D01*
X-1744940Y385270D01*
X-1740200Y386330D01*
X-1734780Y384220D01*
X-1731390Y379980D01*
X-1728680Y372570D01*
X-1727330Y365170D01*
X-1728000Y358820D01*
X-1730710Y351410D01*
X-1734780Y346120D01*
X-1740200Y344000D01*
X-1744260Y345060D01*
X-1749000Y349290D01*
X-1751710Y353520D01*
G01X-1785240Y372570D02*
X-1806920D01*
X-1804880Y379980D01*
X-1801500Y384220D01*
X-1796750Y386330D01*
X-1792010Y385270D01*
X-1787950Y382100D01*
X-1785240Y374690D01*
X-1783880Y368340D01*
Y361990D01*
X-1785240Y355640D01*
X-1788630Y349290D01*
X-1792690Y345060D01*
X-1797430Y344000D01*
X-1802170Y346120D01*
X-1806920Y352460D01*
G01X-1851280Y344000D02*
Y407500D01*
G01X-909740Y459870D02*
X-912450Y463040D01*
X-914480Y468330D01*
X-915840Y475740D01*
X-914480Y482090D01*
X-911770Y486320D01*
X-907030Y489500D01*
X-888740D01*
Y426000D01*
X-911090D01*
X-915840Y430230D01*
X-918540Y436580D01*
X-919900Y443990D01*
X-918540Y451400D01*
X-914480Y457750D01*
X-909740Y459870D01*
X-888740D01*
G01X-947330Y478920D02*
X-951390Y485270D01*
X-956140Y488440D01*
X-961550Y489500D01*
X-968330Y487380D01*
X-973070Y482090D01*
X-974420Y475740D01*
X-973750Y469390D01*
X-971040Y464100D01*
X-957490Y453520D01*
X-951390Y446110D01*
X-947330Y435520D01*
X-945980Y426000D01*
X-974420D01*
G01X-1016080Y489500D02*
X-1010660Y487380D01*
X-1006600Y482090D01*
X-1003890Y475740D01*
X-1001860Y467270D01*
X-1001180Y457750D01*
X-1001860Y448220D01*
X-1003890Y439760D01*
X-1006600Y433410D01*
X-1010660Y428120D01*
X-1016080Y426000D01*
X-1021500Y428120D01*
X-1025560Y433410D01*
X-1028270Y439760D01*
X-1030300Y448220D01*
X-1030980Y457750D01*
X-1030300Y467270D01*
X-1028270Y475740D01*
X-1025560Y482090D01*
X-1021500Y487380D01*
X-1016080Y489500D01*
G01X-1080090Y426000D02*
Y489500D01*
X-1055030Y443990D01*
X-1088890D01*
G01X-572100Y-6296710D02*
Y-1724710D01*
X19239900D01*
G01X-572100Y-2486710D02*
X8571900D01*
G01X-367850Y-4836210D02*
Y-4736210D01*
X-320340D01*
G01X-337840Y-4784540D02*
X-367850D01*
G01X-264070Y-4836210D02*
Y-4736210D01*
X-232810D01*
X-222810Y-4741210D01*
X-216560Y-4747880D01*
X-214060Y-4761210D01*
X-216560Y-4774540D01*
X-224060Y-4782880D01*
X-232810Y-4787880D01*
X-264070D01*
G01X-232810D02*
X-214060Y-4836210D01*
G01X-165290D02*
X-134040Y-4736210D01*
X-102780Y-4836210D01*
G01X-114030Y-4801210D02*
X-154040D01*
G01X-1500Y-4744540D02*
X-9000Y-4739540D01*
X-17750Y-4736210D01*
X-27750D01*
X-39010Y-4741210D01*
X-47760Y-4749540D01*
X-54010Y-4759540D01*
X-59010Y-4776210D01*
X-60260Y-4791210D01*
X-57760Y-4806210D01*
X-54010Y-4816210D01*
X-46510Y-4826210D01*
X-37760Y-4832880D01*
X-29010Y-4836210D01*
X-20250D01*
X-11500Y-4832880D01*
X-4000Y-4827880D01*
X2250Y-4821210D01*
G01X76020Y-4736210D02*
Y-4836210D01*
G01X47270Y-4736210D02*
X104780D01*
G01X166050D02*
X196050D01*
G01X181050D02*
Y-4836210D01*
G01X166050D02*
X196050D01*
G01X286080D02*
X276080Y-4834540D01*
X267330Y-4827880D01*
X259830Y-4817880D01*
X254830Y-4806210D01*
X252330Y-4792880D01*
Y-4779540D01*
X254830Y-4766210D01*
X259830Y-4754540D01*
X267330Y-4744540D01*
X276080Y-4737880D01*
X286080Y-4736210D01*
X296090Y-4737880D01*
X304840Y-4744540D01*
X312340Y-4754540D01*
X317340Y-4766210D01*
X319840Y-4779540D01*
Y-4792880D01*
X317340Y-4806210D01*
X312340Y-4817880D01*
X304840Y-4827880D01*
X296090Y-4834540D01*
X286080Y-4836210D01*
G01X362360D02*
Y-4736210D01*
X419870Y-4836210D01*
Y-4736210D01*
G01X469890Y-4822880D02*
X479890Y-4831210D01*
X491140Y-4836210D01*
X501150D01*
X511150Y-4831210D01*
X518650Y-4822880D01*
X522400Y-4811210D01*
X519900Y-4799550D01*
X513650Y-4789540D01*
X502400Y-4782880D01*
X487390Y-4779540D01*
X478640Y-4772880D01*
X474890Y-4761210D01*
X477390Y-4749540D01*
X483640Y-4741210D01*
X492390Y-4736210D01*
X501150D01*
X509900Y-4739540D01*
X517400Y-4747880D01*
G01X692450Y-4802880D02*
X722460D01*
G01X706200Y-4781210D02*
Y-4824550D01*
G01X-375350Y-4455210D02*
X-344100Y-4355210D01*
X-312840Y-4455210D01*
G01X-324090Y-4420210D02*
X-364100D01*
G01X-267820Y-4455210D02*
Y-4355210D01*
X-210310Y-4455210D01*
Y-4355210D01*
G01X-126530Y-4405210D02*
X-101530D01*
Y-4435210D01*
X-109030Y-4445210D01*
X-117780Y-4451880D01*
X-130280Y-4455210D01*
X-142790Y-4451880D01*
X-151540Y-4445210D01*
X-159040Y-4435210D01*
X-164040Y-4423540D01*
X-166540Y-4410210D01*
Y-4398540D01*
X-164040Y-4388550D01*
X-159040Y-4376880D01*
X-151540Y-4366880D01*
X-144040Y-4360210D01*
X-134040Y-4355210D01*
X-125280D01*
X-115280Y-4358540D01*
X-107780Y-4365210D01*
G01X-54010Y-4355210D02*
Y-4455210D01*
X-4000D01*
G01X101030D02*
X51020D01*
Y-4355210D01*
X101030D01*
G01X81030Y-4403540D02*
X51020D01*
G01X154800Y-4441880D02*
X164800Y-4450210D01*
X176050Y-4455210D01*
X186060D01*
X196060Y-4450210D01*
X203560Y-4441880D01*
X207310Y-4430210D01*
X204810Y-4418550D01*
X198560Y-4408540D01*
X187310Y-4401880D01*
X172300Y-4398540D01*
X163550Y-4391880D01*
X159800Y-4380210D01*
X162300Y-4368540D01*
X168550Y-4360210D01*
X177300Y-4355210D01*
X186060D01*
X194810Y-4358540D01*
X202310Y-4366880D01*
G01X377360Y-4421880D02*
X407370D01*
G01X391110Y-4400210D02*
Y-4443550D01*
G01X-371600Y-4054210D02*
X-364100Y-4065880D01*
X-354100Y-4072540D01*
X-342840Y-4074210D01*
X-332840Y-4072540D01*
X-322840Y-4064210D01*
X-316590Y-4054210D01*
X-315340Y-4044210D01*
X-317840Y-4032550D01*
X-326590Y-4024210D01*
X-335340Y-4020880D01*
X-346600D01*
G01X-335340D02*
X-327840Y-4015880D01*
X-321590Y-4007550D01*
X-319090Y-3997540D01*
X-321590Y-3987540D01*
X-327840Y-3979210D01*
X-339090Y-3974210D01*
X-350350Y-3975880D01*
X-361600Y-3982540D01*
G01X-159040Y-4074210D02*
Y-3974210D01*
X-129030D01*
X-119030Y-3979210D01*
X-111530Y-3990880D01*
X-109030Y-4004210D01*
X-111530Y-4017540D01*
X-117780Y-4027540D01*
X-129030Y-4032550D01*
X-159040D01*
G01X-54010Y-3974210D02*
Y-4074210D01*
X-4000D01*
G01X153550D02*
Y-3974210D01*
X178550D01*
X188560Y-3979210D01*
X196060Y-3985880D01*
X202310Y-3995880D01*
X207310Y-4007550D01*
X208560Y-4024210D01*
X207310Y-4040880D01*
X202310Y-4052540D01*
X196060Y-4062550D01*
X188560Y-4069210D01*
X178550Y-4074210D01*
X153550D01*
G01X311090D02*
X261080D01*
Y-3974210D01*
X311090D01*
G01X291090Y-4022540D02*
X261080D01*
G01X418620Y-3982540D02*
X411120Y-3977540D01*
X402370Y-3974210D01*
X392370D01*
X381110Y-3979210D01*
X372360Y-3987540D01*
X366110Y-3997540D01*
X361110Y-4014210D01*
X359860Y-4029210D01*
X362360Y-4044210D01*
X366110Y-4054210D01*
X373610Y-4064210D01*
X382360Y-4070880D01*
X391110Y-4074210D01*
X399870D01*
X408620Y-4070880D01*
X416120Y-4065880D01*
X422370Y-4059210D01*
G01X481140Y-3974210D02*
X511140D01*
G01X496140D02*
Y-4074210D01*
G01X481140D02*
X511140D01*
G01X568670D02*
Y-3974210D01*
X601170Y-4057540D01*
X633680Y-3974210D01*
Y-4074210D01*
G01X674950D02*
X706200Y-3974210D01*
X737460Y-4074210D01*
G01X726210Y-4039210D02*
X686200D01*
G01X786230Y-3974210D02*
Y-4074210D01*
X836240D01*
G01X890010Y-4060880D02*
X900010Y-4069210D01*
X911260Y-4074210D01*
X921270D01*
X931270Y-4069210D01*
X938770Y-4060880D01*
X942520Y-4049210D01*
X940020Y-4037550D01*
X933770Y-4027540D01*
X922520Y-4020880D01*
X907510Y-4017540D01*
X898760Y-4010880D01*
X895010Y-3999210D01*
X897510Y-3987540D01*
X903760Y-3979210D01*
X912510Y-3974210D01*
X921270D01*
X930020Y-3977540D01*
X937520Y-3985880D01*
G01X1112570Y-4040880D02*
X1142580D01*
G01X1126320Y-4019210D02*
Y-4062550D01*
G01X-367850Y-3609880D02*
X-360350Y-3599880D01*
X-351600Y-3594880D01*
X-341590Y-3593210D01*
X-329090Y-3596540D01*
X-320340Y-3604880D01*
X-317840Y-3614880D01*
X-319090Y-3624880D01*
X-324090Y-3633210D01*
X-349100Y-3649880D01*
X-360350Y-3661540D01*
X-367850Y-3678210D01*
X-370350Y-3693210D01*
X-317840D01*
G01X-159040D02*
Y-3593210D01*
X-129030D01*
X-119030Y-3598210D01*
X-111530Y-3609880D01*
X-109030Y-3623210D01*
X-111530Y-3636540D01*
X-117780Y-3646540D01*
X-129030Y-3651550D01*
X-159040D01*
G01X-54010Y-3593210D02*
Y-3693210D01*
X-4000D01*
G01X153550D02*
Y-3593210D01*
X178550D01*
X188560Y-3598210D01*
X196060Y-3604880D01*
X202310Y-3614880D01*
X207310Y-3626550D01*
X208560Y-3643210D01*
X207310Y-3659880D01*
X202310Y-3671540D01*
X196060Y-3681550D01*
X188560Y-3688210D01*
X178550Y-3693210D01*
X153550D01*
G01X311090D02*
X261080D01*
Y-3593210D01*
X311090D01*
G01X291090Y-3641540D02*
X261080D01*
G01X418620Y-3601540D02*
X411120Y-3596540D01*
X402370Y-3593210D01*
X392370D01*
X381110Y-3598210D01*
X372360Y-3606540D01*
X366110Y-3616540D01*
X361110Y-3633210D01*
X359860Y-3648210D01*
X362360Y-3663210D01*
X366110Y-3673210D01*
X373610Y-3683210D01*
X382360Y-3689880D01*
X391110Y-3693210D01*
X399870D01*
X408620Y-3689880D01*
X416120Y-3684880D01*
X422370Y-3678210D01*
G01X481140Y-3593210D02*
X511140D01*
G01X496140D02*
Y-3693210D01*
G01X481140D02*
X511140D01*
G01X568670D02*
Y-3593210D01*
X601170Y-3676540D01*
X633680Y-3593210D01*
Y-3693210D01*
G01X674950D02*
X706200Y-3593210D01*
X737460Y-3693210D01*
G01X726210Y-3658210D02*
X686200D01*
G01X786230Y-3593210D02*
Y-3693210D01*
X836240D01*
G01X890010Y-3679880D02*
X900010Y-3688210D01*
X911260Y-3693210D01*
X921270D01*
X931270Y-3688210D01*
X938770Y-3679880D01*
X942520Y-3668210D01*
X940020Y-3656550D01*
X933770Y-3646540D01*
X922520Y-3639880D01*
X907510Y-3636540D01*
X898760Y-3629880D01*
X895010Y-3618210D01*
X897510Y-3606540D01*
X903760Y-3598210D01*
X912510Y-3593210D01*
X921270D01*
X930020Y-3596540D01*
X937520Y-3604880D01*
G01X1112570Y-3659880D02*
X1142580D01*
G01X1126320Y-3638210D02*
Y-3681550D01*
G01X-344100Y-3212210D02*
Y-3312210D01*
G01X-372850Y-3212210D02*
X-315340D01*
G01X-239070Y-3312210D02*
X-249070Y-3310540D01*
X-257820Y-3303880D01*
X-265320Y-3293880D01*
X-270320Y-3282210D01*
X-272820Y-3268880D01*
Y-3255540D01*
X-270320Y-3242210D01*
X-265320Y-3230540D01*
X-257820Y-3220540D01*
X-249070Y-3213880D01*
X-239070Y-3212210D01*
X-229060Y-3213880D01*
X-220310Y-3220540D01*
X-212810Y-3230540D01*
X-207810Y-3242210D01*
X-205310Y-3255540D01*
Y-3268880D01*
X-207810Y-3282210D01*
X-212810Y-3293880D01*
X-220310Y-3303880D01*
X-229060Y-3310540D01*
X-239070Y-3312210D01*
G01X-159040Y-3212210D02*
Y-3312210D01*
X-109030D01*
G01X-4000D02*
X-54010D01*
Y-3212210D01*
X-4000D01*
G01X-24000Y-3260540D02*
X-54010D01*
G01X51020Y-3312210D02*
Y-3212210D01*
X82280D01*
X92280Y-3217210D01*
X98530Y-3223880D01*
X101030Y-3237210D01*
X98530Y-3250540D01*
X91030Y-3258880D01*
X82280Y-3263880D01*
X51020D01*
G01X82280D02*
X101030Y-3312210D01*
G01X149800D02*
X181050Y-3212210D01*
X212310Y-3312210D01*
G01X201060Y-3277210D02*
X161050D01*
G01X257330Y-3312210D02*
Y-3212210D01*
X314840Y-3312210D01*
Y-3212210D01*
G01X418620Y-3220540D02*
X411120Y-3215540D01*
X402370Y-3212210D01*
X392370D01*
X381110Y-3217210D01*
X372360Y-3225540D01*
X366110Y-3235540D01*
X361110Y-3252210D01*
X359860Y-3267210D01*
X362360Y-3282210D01*
X366110Y-3292210D01*
X373610Y-3302210D01*
X382360Y-3308880D01*
X391110Y-3312210D01*
X399870D01*
X408620Y-3308880D01*
X416120Y-3303880D01*
X422370Y-3297210D01*
G01X521150Y-3312210D02*
X471140D01*
Y-3212210D01*
X521150D01*
G01X501150Y-3260540D02*
X471140D01*
G01X574920Y-3298880D02*
X584920Y-3307210D01*
X596170Y-3312210D01*
X606180D01*
X616180Y-3307210D01*
X623680Y-3298880D01*
X627430Y-3287210D01*
X624930Y-3275550D01*
X618680Y-3265540D01*
X607430Y-3258880D01*
X592420Y-3255540D01*
X583670Y-3248880D01*
X579920Y-3237210D01*
X582420Y-3225540D01*
X588670Y-3217210D01*
X597420Y-3212210D01*
X606180D01*
X614930Y-3215540D01*
X622430Y-3223880D01*
G01X811230Y-3312210D02*
X801230Y-3310540D01*
X792480Y-3303880D01*
X784980Y-3293880D01*
X779980Y-3282210D01*
X777480Y-3268880D01*
Y-3255540D01*
X779980Y-3242210D01*
X784980Y-3230540D01*
X792480Y-3220540D01*
X801230Y-3213880D01*
X811230Y-3212210D01*
X821240Y-3213880D01*
X829990Y-3220540D01*
X837490Y-3230540D01*
X842490Y-3242210D01*
X844990Y-3255540D01*
Y-3268880D01*
X842490Y-3282210D01*
X837490Y-3293880D01*
X829990Y-3303880D01*
X821240Y-3310540D01*
X811230Y-3312210D01*
G01X887510D02*
Y-3212210D01*
X945020Y-3312210D01*
Y-3212210D01*
G01X1021290Y-3315540D02*
X1018790Y-3313880D01*
Y-3310540D01*
X1021290Y-3308880D01*
X1023800Y-3310540D01*
Y-3313880D01*
X1021290Y-3315540D01*
G01Y-3270550D02*
X1018790Y-3268880D01*
Y-3265540D01*
X1021290Y-3263880D01*
X1023800Y-3265540D01*
Y-3268880D01*
X1021290Y-3270550D01*
G01X-371600Y-2867710D02*
Y-2767710D01*
X-346600D01*
X-336590Y-2772710D01*
X-329090Y-2779380D01*
X-322840Y-2789380D01*
X-317840Y-2801050D01*
X-316590Y-2817710D01*
X-317840Y-2834380D01*
X-322840Y-2846040D01*
X-329090Y-2856050D01*
X-336590Y-2862710D01*
X-346600Y-2867710D01*
X-371600D01*
G01X-254070Y-2767710D02*
X-224070D01*
G01X-239070D02*
Y-2867710D01*
G01X-254070D02*
X-224070D01*
G01X-166540D02*
Y-2767710D01*
X-134040Y-2851040D01*
X-101530Y-2767710D01*
Y-2867710D01*
G01X-4000D02*
X-54010D01*
Y-2767710D01*
X-4000D01*
G01X-24000Y-2816040D02*
X-54010D01*
G01X47270Y-2867710D02*
Y-2767710D01*
X104780Y-2867710D01*
Y-2767710D01*
G01X154800Y-2854380D02*
X164800Y-2862710D01*
X176050Y-2867710D01*
X186060D01*
X196060Y-2862710D01*
X203560Y-2854380D01*
X207310Y-2842710D01*
X204810Y-2831050D01*
X198560Y-2821040D01*
X187310Y-2814380D01*
X172300Y-2811040D01*
X163550Y-2804380D01*
X159800Y-2792710D01*
X162300Y-2781040D01*
X168550Y-2772710D01*
X177300Y-2767710D01*
X186060D01*
X194810Y-2771040D01*
X202310Y-2779380D01*
G01X271080Y-2767710D02*
X301080D01*
G01X286080D02*
Y-2867710D01*
G01X271080D02*
X301080D01*
G01X391110D02*
X381110Y-2866040D01*
X372360Y-2859380D01*
X364860Y-2849380D01*
X359860Y-2837710D01*
X357360Y-2824380D01*
Y-2811040D01*
X359860Y-2797710D01*
X364860Y-2786040D01*
X372360Y-2776040D01*
X381110Y-2769380D01*
X391110Y-2767710D01*
X401120Y-2769380D01*
X409870Y-2776040D01*
X417370Y-2786040D01*
X422370Y-2797710D01*
X424870Y-2811040D01*
Y-2824380D01*
X422370Y-2837710D01*
X417370Y-2849380D01*
X409870Y-2859380D01*
X401120Y-2866040D01*
X391110Y-2867710D01*
G01X467390D02*
Y-2767710D01*
X524900Y-2867710D01*
Y-2767710D01*
G01X574920Y-2854380D02*
X584920Y-2862710D01*
X596170Y-2867710D01*
X606180D01*
X616180Y-2862710D01*
X623680Y-2854380D01*
X627430Y-2842710D01*
X624930Y-2831050D01*
X618680Y-2821040D01*
X607430Y-2814380D01*
X592420Y-2811040D01*
X583670Y-2804380D01*
X579920Y-2792710D01*
X582420Y-2781040D01*
X588670Y-2772710D01*
X597420Y-2767710D01*
X606180D01*
X614930Y-2771040D01*
X622430Y-2779380D01*
G01X779980Y-2867710D02*
X811230Y-2767710D01*
X842490Y-2867710D01*
G01X831240Y-2832710D02*
X791230D01*
G01X891260Y-2867710D02*
Y-2767710D01*
X922520D01*
X932520Y-2772710D01*
X938770Y-2779380D01*
X941270Y-2792710D01*
X938770Y-2806040D01*
X931270Y-2814380D01*
X922520Y-2819380D01*
X891260D01*
G01X922520D02*
X941270Y-2867710D01*
G01X1046300D02*
X996290D01*
Y-2767710D01*
X1046300D01*
G01X1026300Y-2816040D02*
X996290D01*
G01X1216350Y-2767710D02*
X1246350D01*
G01X1231350D02*
Y-2867710D01*
G01X1216350D02*
X1246350D01*
G01X1307630D02*
Y-2767710D01*
X1365140Y-2867710D01*
Y-2767710D01*
G01X1513940Y-2867710D02*
Y-2767710D01*
X1546440Y-2851040D01*
X1578950Y-2767710D01*
Y-2867710D01*
G01X1618970D02*
Y-2767710D01*
X1651470Y-2851040D01*
X1683980Y-2767710D01*
Y-2867710D01*
G01X-371600Y-2069210D02*
Y-2140880D01*
X-366600Y-2155880D01*
X-356600Y-2165880D01*
X-344100Y-2169210D01*
X-331590Y-2165880D01*
X-321590Y-2155880D01*
X-316590Y-2140880D01*
Y-2069210D01*
G01X-267820Y-2169210D02*
Y-2069210D01*
X-210310Y-2169210D01*
Y-2069210D01*
G01X-159040D02*
Y-2169210D01*
X-109030D01*
G01X-4000D02*
X-54010D01*
Y-2069210D01*
X-4000D01*
G01X-24000Y-2117540D02*
X-54010D01*
G01X49770Y-2155880D02*
X59770Y-2164210D01*
X71020Y-2169210D01*
X81030D01*
X91030Y-2164210D01*
X98530Y-2155880D01*
X102280Y-2144210D01*
X99780Y-2132550D01*
X93530Y-2122540D01*
X82280Y-2115880D01*
X67270Y-2112540D01*
X58520Y-2105880D01*
X54770Y-2094210D01*
X57270Y-2082540D01*
X63520Y-2074210D01*
X72270Y-2069210D01*
X81030D01*
X89780Y-2072540D01*
X97280Y-2080880D01*
G01X154800Y-2155880D02*
X164800Y-2164210D01*
X176050Y-2169210D01*
X186060D01*
X196060Y-2164210D01*
X203560Y-2155880D01*
X207310Y-2144210D01*
X204810Y-2132550D01*
X198560Y-2122540D01*
X187310Y-2115880D01*
X172300Y-2112540D01*
X163550Y-2105880D01*
X159800Y-2094210D01*
X162300Y-2082540D01*
X168550Y-2074210D01*
X177300Y-2069210D01*
X186060D01*
X194810Y-2072540D01*
X202310Y-2080880D01*
G01X391110Y-2169210D02*
X381110Y-2167540D01*
X372360Y-2160880D01*
X364860Y-2150880D01*
X359860Y-2139210D01*
X357360Y-2125880D01*
Y-2112540D01*
X359860Y-2099210D01*
X364860Y-2087540D01*
X372360Y-2077540D01*
X381110Y-2070880D01*
X391110Y-2069210D01*
X401120Y-2070880D01*
X409870Y-2077540D01*
X417370Y-2087540D01*
X422370Y-2099210D01*
X424870Y-2112540D01*
Y-2125880D01*
X422370Y-2139210D01*
X417370Y-2150880D01*
X409870Y-2160880D01*
X401120Y-2167540D01*
X391110Y-2169210D01*
G01X496140Y-2069210D02*
Y-2169210D01*
G01X467390Y-2069210D02*
X524900D01*
G01X574920Y-2169210D02*
Y-2069210D01*
G01X627430D02*
Y-2169210D01*
G01Y-2119210D02*
X574920D01*
G01X731210Y-2169210D02*
X681200D01*
Y-2069210D01*
X731210D01*
G01X711210Y-2117540D02*
X681200D01*
G01X786230Y-2169210D02*
Y-2069210D01*
X817490D01*
X827490Y-2074210D01*
X833740Y-2080880D01*
X836240Y-2094210D01*
X833740Y-2107540D01*
X826240Y-2115880D01*
X817490Y-2120880D01*
X786230D01*
G01X817490D02*
X836240Y-2169210D01*
G01X878760Y-2069210D02*
X896260Y-2169210D01*
X916260Y-2069210D01*
X936270Y-2169210D01*
X953770Y-2069210D01*
G01X1006290D02*
X1036290D01*
G01X1021290D02*
Y-2169210D01*
G01X1006290D02*
X1036290D01*
G01X1100070Y-2155880D02*
X1110070Y-2164210D01*
X1121320Y-2169210D01*
X1131330D01*
X1141330Y-2164210D01*
X1148830Y-2155880D01*
X1152580Y-2144210D01*
X1150080Y-2132550D01*
X1143830Y-2122540D01*
X1132580Y-2115880D01*
X1117570Y-2112540D01*
X1108820Y-2105880D01*
X1105070Y-2094210D01*
X1107570Y-2082540D01*
X1113820Y-2074210D01*
X1122570Y-2069210D01*
X1131330D01*
X1140080Y-2072540D01*
X1147580Y-2080880D01*
G01X1256360Y-2169210D02*
X1206350D01*
Y-2069210D01*
X1256360D01*
G01X1236360Y-2117540D02*
X1206350D01*
G01X1415160Y-2155880D02*
X1425160Y-2164210D01*
X1436410Y-2169210D01*
X1446420D01*
X1456420Y-2164210D01*
X1463920Y-2155880D01*
X1467670Y-2144210D01*
X1465170Y-2132550D01*
X1458920Y-2122540D01*
X1447670Y-2115880D01*
X1432660Y-2112540D01*
X1423910Y-2105880D01*
X1420160Y-2094210D01*
X1422660Y-2082540D01*
X1428910Y-2074210D01*
X1437660Y-2069210D01*
X1446420D01*
X1455170Y-2072540D01*
X1462670Y-2080880D01*
G01X1521440Y-2169210D02*
Y-2069210D01*
X1551450D01*
X1561450Y-2074210D01*
X1568950Y-2085880D01*
X1571450Y-2099210D01*
X1568950Y-2112540D01*
X1562700Y-2122540D01*
X1551450Y-2127550D01*
X1521440D01*
G01X1676480Y-2169210D02*
X1626470D01*
Y-2069210D01*
X1676480D01*
G01X1656480Y-2117540D02*
X1626470D01*
G01X1784010Y-2077540D02*
X1776510Y-2072540D01*
X1767760Y-2069210D01*
X1757760D01*
X1746500Y-2074210D01*
X1737750Y-2082540D01*
X1731500Y-2092540D01*
X1726500Y-2109210D01*
X1725250Y-2124210D01*
X1727750Y-2139210D01*
X1731500Y-2149210D01*
X1739000Y-2159210D01*
X1747750Y-2165880D01*
X1756500Y-2169210D01*
X1765260D01*
X1774010Y-2165880D01*
X1781510Y-2160880D01*
X1787760Y-2154210D01*
G01X1846530Y-2069210D02*
X1876530D01*
G01X1861530D02*
Y-2169210D01*
G01X1846530D02*
X1876530D01*
G01X1942810D02*
Y-2069210D01*
X1990320D01*
G01X1972820Y-2117540D02*
X1942810D01*
G01X2056590Y-2069210D02*
X2086590D01*
G01X2071590D02*
Y-2169210D01*
G01X2056590D02*
X2086590D01*
G01X2201630D02*
X2151620D01*
Y-2069210D01*
X2201630D01*
G01X2181630Y-2117540D02*
X2151620D01*
G01X2254150Y-2169210D02*
Y-2069210D01*
X2279150D01*
X2289160Y-2074210D01*
X2296660Y-2080880D01*
X2302910Y-2090880D01*
X2307910Y-2102550D01*
X2309160Y-2119210D01*
X2307910Y-2135880D01*
X2302910Y-2147540D01*
X2296660Y-2157550D01*
X2289160Y-2164210D01*
X2279150Y-2169210D01*
X2254150D01*
G01X992680Y-650000D02*
Y-586500D01*
X1000810Y-599200D01*
G01Y-650000D02*
X984550D01*
G01X893790Y-597080D02*
X889730Y-590730D01*
X884980Y-587560D01*
X879570Y-586500D01*
X872790Y-588620D01*
X868050Y-593910D01*
X866700Y-600260D01*
X867370Y-606610D01*
X870080Y-611900D01*
X883630Y-622480D01*
X889730Y-629890D01*
X893790Y-640480D01*
X895140Y-650000D01*
X866700D01*
G01X784060Y-637300D02*
X780000Y-644710D01*
X774580Y-648940D01*
X768480Y-650000D01*
X763060Y-648940D01*
X757640Y-643650D01*
X754260Y-637300D01*
X753580Y-630950D01*
X754940Y-623540D01*
X759680Y-618250D01*
X764420Y-616130D01*
X770510D01*
G01X764420D02*
X760350Y-612960D01*
X756970Y-607670D01*
X755610Y-601320D01*
X756970Y-594970D01*
X760350Y-589680D01*
X766450Y-586500D01*
X772550Y-587560D01*
X778640Y-591790D01*
G01X649270Y-650000D02*
Y-586500D01*
X674330Y-632010D01*
X640470D01*
G01X3237900Y-1724710D02*
Y-6296710D01*
G01Y-5407710D02*
X8571900D01*
G01X3237900Y-4772710D02*
X8571900D01*
G01X3237900Y-4010710D02*
X8571900D01*
G01X3237900Y-3248710D02*
X8571900D01*
G01X4335310Y-2147880D02*
X4351220Y-2161210D01*
X4369130Y-2169210D01*
X4385050D01*
X4400970Y-2161210D01*
X4412910Y-2147880D01*
X4418870Y-2129200D01*
X4414890Y-2110540D01*
X4404940Y-2094540D01*
X4387040Y-2083860D01*
X4363160Y-2078530D01*
X4349240Y-2067870D01*
X4343260Y-2049200D01*
X4347250Y-2030530D01*
X4357190Y-2017190D01*
X4371120Y-2009190D01*
X4385050D01*
X4398980Y-2014520D01*
X4410920Y-2027860D01*
G01X4513230Y-2009190D02*
X4560980D01*
G01X4537110D02*
Y-2169210D01*
G01X4513230D02*
X4560980D01*
G01X4709070Y-2089200D02*
X4748860D01*
Y-2137210D01*
X4736920Y-2153210D01*
X4723000Y-2163880D01*
X4703100Y-2169210D01*
X4683200Y-2163880D01*
X4669280Y-2153210D01*
X4657340Y-2137210D01*
X4649380Y-2118540D01*
X4645400Y-2097200D01*
Y-2078530D01*
X4649380Y-2062530D01*
X4657340Y-2043860D01*
X4669280Y-2027860D01*
X4681210Y-2017190D01*
X4697130Y-2009190D01*
X4711060D01*
X4726970Y-2014520D01*
X4738910Y-2025190D01*
G01X4811390Y-2169210D02*
Y-2009190D01*
X4902910Y-2169210D01*
Y-2009190D01*
G01X4967430Y-2169210D02*
X5017170Y-2009190D01*
X5066910Y-2169210D01*
G01X5049000Y-2113210D02*
X4985330D01*
G01X5177190Y-2009190D02*
Y-2169210D01*
G01X5131430Y-2009190D02*
X5222950D01*
G01X5293440D02*
Y-2123870D01*
X5301390Y-2147880D01*
X5317310Y-2163880D01*
X5337210Y-2169210D01*
X5357110Y-2163880D01*
X5373030Y-2147880D01*
X5380980Y-2123870D01*
Y-2009190D01*
G01X5457440Y-2169210D02*
Y-2009190D01*
X5507180D01*
X5523100Y-2017190D01*
X5533050Y-2027860D01*
X5537020Y-2049200D01*
X5533050Y-2070530D01*
X5521110Y-2083860D01*
X5507180Y-2091870D01*
X5457440D01*
G01X5507180D02*
X5537020Y-2169210D01*
G01X5697040D02*
X5617460D01*
Y-2009190D01*
X5697040D01*
G01X5665210Y-2086530D02*
X5617460D01*
G01X5775490Y-2147880D02*
X5791400Y-2161210D01*
X5809310Y-2169210D01*
X5825230D01*
X5841150Y-2161210D01*
X5853090Y-2147880D01*
X5859050Y-2129200D01*
X5855070Y-2110540D01*
X5845120Y-2094540D01*
X5827220Y-2083860D01*
X5803340Y-2078530D01*
X5789420Y-2067870D01*
X5783440Y-2049200D01*
X5787430Y-2030530D01*
X5797370Y-2017190D01*
X5811300Y-2009190D01*
X5825230D01*
X5839160Y-2014520D01*
X5851100Y-2027860D01*
G01X6539900Y-4709210D02*
Y-4772710D01*
G01Y-4709210D02*
Y-1724710D01*
G01X6569390Y5709310D02*
X19169390D01*
G01X6569390Y14009290D02*
Y5709310D01*
G01Y11188290D02*
X19169390D01*
G01X6562400Y11599290D02*
X19162400D01*
G01X6569390Y12009300D02*
X19169390D01*
G01X6569390Y12509300D02*
X19169390D01*
G01X6698650Y12689790D02*
Y12943790D01*
X6778020D01*
X6803420Y12931080D01*
X6819300Y12914160D01*
X6825650Y12880290D01*
X6819300Y12846420D01*
X6800250Y12825260D01*
X6778020Y12812550D01*
X6698650D01*
G01X6778020D02*
X6825650Y12689790D01*
G01X7079650D02*
X6952650D01*
Y12943790D01*
X7079650D01*
G01X7028850Y12821030D02*
X6952650D01*
G01X7190770Y12943790D02*
X7270150Y12689790D01*
X7349530Y12943790D01*
G01X6569390Y13209300D02*
X19169390D01*
G01X6928820Y12155960D02*
Y12315980D01*
X6904940Y12283980D01*
G01Y12155960D02*
X6952690D01*
G01X7088840Y12150630D02*
X7084860Y12153290D01*
Y12158630D01*
X7088840Y12161290D01*
X7092820Y12158630D01*
Y12153290D01*
X7088840Y12150630D01*
G01X7248860Y12315980D02*
X7232940Y12310650D01*
X7221010Y12297310D01*
X7213040Y12281310D01*
X7207080Y12259970D01*
X7205090Y12235970D01*
X7207080Y12211960D01*
X7213040Y12190630D01*
X7221010Y12174630D01*
X7232940Y12161290D01*
X7248860Y12155960D01*
X7264780Y12161290D01*
X7276710Y12174630D01*
X7284680Y12190630D01*
X7290640Y12211960D01*
X7292630Y12235970D01*
X7290640Y12259970D01*
X7284680Y12281310D01*
X7276710Y12297310D01*
X7264780Y12310650D01*
X7248860Y12315980D01*
G01X7190820Y-2169210D02*
Y-2009190D01*
X7230610D01*
X7246530Y-2017190D01*
X7258470Y-2027860D01*
X7268420Y-2043860D01*
X7276370Y-2062530D01*
X7278360Y-2089200D01*
X7276370Y-2115870D01*
X7268420Y-2134540D01*
X7258470Y-2150540D01*
X7246530Y-2161210D01*
X7230610Y-2169210D01*
X7190820D01*
G01X7344870D02*
X7394610Y-2009190D01*
X7444350Y-2169210D01*
G01X7426440Y-2113210D02*
X7362770D01*
G01X7554630Y-2009190D02*
Y-2169210D01*
G01X7508870Y-2009190D02*
X7600390D01*
G01X7754440Y-2169210D02*
X7674860D01*
Y-2009190D01*
X7754440D01*
G01X7722610Y-2086530D02*
X7674860D01*
G01X7469410Y5709310D02*
Y13209300D01*
G01X7591430Y12155960D02*
Y12315980D01*
X7667030D01*
G01X7639180Y12238640D02*
X7591430D01*
G01X7789250Y12262640D02*
Y12155960D01*
G01Y12305310D02*
X7785270Y12307980D01*
Y12313310D01*
X7789250Y12315980D01*
X7793230Y12313310D01*
Y12307980D01*
X7789250Y12305310D01*
G01X7921420Y12155960D02*
Y12262640D01*
G01Y12241310D02*
X7931360Y12251970D01*
X7941310Y12259970D01*
X7955240Y12262640D01*
X7965190Y12259970D01*
X7977120Y12251970D01*
G01X8079450Y12174630D02*
X8089390Y12163960D01*
X8103320Y12155960D01*
X8115260D01*
X8127200Y12161290D01*
X8135160Y12169290D01*
X8139130Y12179960D01*
X8137140Y12195970D01*
X8129190Y12203970D01*
X8093370Y12219960D01*
X8085410Y12238640D01*
X8089390Y12251970D01*
X8097350Y12259970D01*
X8109290Y12262640D01*
X8121230Y12259970D01*
X8133170Y12251970D01*
G01X8269310Y12315980D02*
Y12155960D01*
G01X8241460Y12262640D02*
X8297160D01*
G01X8561500Y12155960D02*
Y12262640D01*
G01Y12241310D02*
X8571440Y12251970D01*
X8581390Y12259970D01*
X8595320Y12262640D01*
X8605270Y12259970D01*
X8617200Y12251970D01*
G01X8719530Y12227970D02*
X8783200D01*
X8777220Y12246640D01*
X8767280Y12257300D01*
X8753350Y12262640D01*
X8739420Y12259970D01*
X8727480Y12251970D01*
X8719530Y12233300D01*
X8715540Y12217300D01*
Y12201300D01*
X8719530Y12185300D01*
X8729470Y12169290D01*
X8741410Y12158630D01*
X8755340Y12155960D01*
X8769270Y12161290D01*
X8783200Y12177290D01*
G01X8873570Y12262640D02*
X8909390Y12155960D01*
X8945210Y12262640D01*
G01X9069410D02*
Y12155960D01*
G01Y12305310D02*
X9065430Y12307980D01*
Y12313310D01*
X9069410Y12315980D01*
X9073390Y12313310D01*
Y12307980D01*
X9069410Y12305310D01*
G01X9199590Y12174630D02*
X9209530Y12163960D01*
X9223460Y12155960D01*
X9235400D01*
X9247340Y12161290D01*
X9255300Y12169290D01*
X9259270Y12179960D01*
X9257280Y12195970D01*
X9249330Y12203970D01*
X9213510Y12219960D01*
X9205550Y12238640D01*
X9209530Y12251970D01*
X9217490Y12259970D01*
X9229430Y12262640D01*
X9241370Y12259970D01*
X9253310Y12251970D01*
G01X9389450Y12262640D02*
Y12155960D01*
G01Y12305310D02*
X9385470Y12307980D01*
Y12313310D01*
X9389450Y12315980D01*
X9393430Y12313310D01*
Y12307980D01*
X9389450Y12305310D01*
G01X9549470Y12155960D02*
X9537530Y12158630D01*
X9525590Y12169290D01*
X9517630Y12187960D01*
X9513650Y12209300D01*
X9517630Y12230630D01*
X9525590Y12249300D01*
X9537530Y12259970D01*
X9549470Y12262640D01*
X9561410Y12259970D01*
X9573350Y12249300D01*
X9581300Y12230630D01*
X9583300Y12209300D01*
X9581300Y12187960D01*
X9573350Y12169290D01*
X9561410Y12158630D01*
X9549470Y12155960D01*
G01X9675660D02*
Y12262640D01*
G01Y12235970D02*
X9683620Y12249300D01*
X9695560Y12259970D01*
X9711480Y12262640D01*
X9725410Y12259970D01*
X9737340Y12249300D01*
X9743320Y12230630D01*
Y12155960D01*
G01X8571900Y-1724710D02*
Y-6296710D01*
G01X8727470Y-5881850D02*
X8752880Y-5903010D01*
X8781450Y-5915710D01*
X8806850D01*
X8832250Y-5903010D01*
X8851300Y-5881850D01*
X8860830Y-5852210D01*
X8854480Y-5822580D01*
X8838600Y-5797180D01*
X8810020Y-5780240D01*
X8771930Y-5771780D01*
X8749700Y-5754850D01*
X8740170Y-5725210D01*
X8746530Y-5695580D01*
X8762400Y-5674420D01*
X8784620Y-5661710D01*
X8806850D01*
X8829080Y-5670170D01*
X8848130Y-5691340D01*
G01X9118000Y-5682880D02*
X9098950Y-5670170D01*
X9076730Y-5661710D01*
X9051330D01*
X9022750Y-5674420D01*
X9000530Y-5695580D01*
X8984650Y-5720980D01*
X8971950Y-5763310D01*
X8968770Y-5801410D01*
X8975130Y-5839510D01*
X8984650Y-5864910D01*
X9003700Y-5890320D01*
X9025930Y-5907250D01*
X9048150Y-5915710D01*
X9070370D01*
X9092600Y-5907250D01*
X9111650Y-5894550D01*
X9127530Y-5877620D01*
G01X9222770Y-5915710D02*
X9302150Y-5661710D01*
X9381530Y-5915710D01*
G01X9352950Y-5826810D02*
X9251350D01*
G01X9492650Y-5661710D02*
Y-5915710D01*
X9619650D01*
G01X9873650D02*
X9746650D01*
Y-5661710D01*
X9873650D01*
G01X9822850Y-5784470D02*
X9746650D01*
G01X14921900Y-5534710D02*
X8571900D01*
G01X8727470Y-4865850D02*
X8752880Y-4887010D01*
X8781450Y-4899710D01*
X8806850D01*
X8832250Y-4887010D01*
X8851300Y-4865850D01*
X8860830Y-4836210D01*
X8854480Y-4806580D01*
X8838600Y-4781180D01*
X8810020Y-4764240D01*
X8771930Y-4755780D01*
X8749700Y-4738850D01*
X8740170Y-4709210D01*
X8746530Y-4679580D01*
X8762400Y-4658420D01*
X8784620Y-4645710D01*
X8806850D01*
X8829080Y-4654170D01*
X8848130Y-4675340D01*
G01X9010050Y-4645710D02*
X9086240D01*
G01X9048150D02*
Y-4899710D01*
G01X9010050D02*
X9086240D01*
G01X9241820Y-4645710D02*
X9362480D01*
X9241820Y-4899710D01*
X9362480D01*
G01X9619650D02*
X9492650D01*
Y-4645710D01*
X9619650D01*
G01X9568850Y-4768470D02*
X9492650D01*
G01X19239900Y-4518710D02*
X8571900D01*
G01X19239900Y-2994710D02*
X8571900D01*
G01X9139430Y-4013760D02*
X9218810Y-4267760D01*
X9298190Y-4013760D01*
G01X9472810Y-4098430D02*
Y-4267760D01*
G01Y-4030700D02*
X9466460Y-4026470D01*
Y-4017990D01*
X9472810Y-4013760D01*
X9479160Y-4017990D01*
Y-4026470D01*
X9472810Y-4030700D01*
G01X9679190Y-4153460D02*
X9780790D01*
X9771260Y-4123830D01*
X9755390Y-4106900D01*
X9733160Y-4098430D01*
X9710940Y-4102660D01*
X9691880Y-4115360D01*
X9679190Y-4145000D01*
X9672830Y-4170400D01*
Y-4195790D01*
X9679190Y-4221200D01*
X9695060Y-4246600D01*
X9714110Y-4263530D01*
X9736340Y-4267760D01*
X9758560Y-4259300D01*
X9780790Y-4233900D01*
G01X9901430Y-4098430D02*
X9939540Y-4267760D01*
X9980810Y-4098430D01*
X10022080Y-4267760D01*
X10060190Y-4098430D01*
G01X10187190Y-4153460D02*
X10288790D01*
X10279260Y-4123830D01*
X10263390Y-4106900D01*
X10241160Y-4098430D01*
X10218940Y-4102660D01*
X10199880Y-4115360D01*
X10187190Y-4145000D01*
X10180830Y-4170400D01*
Y-4195790D01*
X10187190Y-4221200D01*
X10203060Y-4246600D01*
X10222110Y-4263530D01*
X10244340Y-4267760D01*
X10266560Y-4259300D01*
X10288790Y-4233900D01*
G01X10545960Y-4013760D02*
Y-4267760D01*
G01Y-4229670D02*
X10533260Y-4250830D01*
X10514210Y-4263530D01*
X10491990Y-4267760D01*
X10466590Y-4259300D01*
X10447540Y-4238130D01*
X10434830Y-4212730D01*
X10431660Y-4183100D01*
X10434830Y-4153460D01*
X10447540Y-4128060D01*
X10466590Y-4106900D01*
X10491990Y-4098430D01*
X10514210Y-4102660D01*
X10530080Y-4111130D01*
X10545960Y-4128060D01*
G01X10977760Y-4267760D02*
Y-4051860D01*
X10984110Y-4030700D01*
X10996810Y-4017990D01*
X11015860Y-4013760D01*
X11034910Y-4022220D01*
X11044430Y-4043390D01*
G01X11006340Y-4115360D02*
X10942830D01*
G01X11250810Y-4267760D02*
X11231760Y-4263530D01*
X11212710Y-4246600D01*
X11200010Y-4216960D01*
X11193660Y-4183100D01*
X11200010Y-4149230D01*
X11212710Y-4119590D01*
X11231760Y-4102660D01*
X11250810Y-4098430D01*
X11269860Y-4102660D01*
X11288910Y-4119590D01*
X11301610Y-4149230D01*
X11304790Y-4183100D01*
X11301610Y-4216960D01*
X11288910Y-4246600D01*
X11269860Y-4263530D01*
X11250810Y-4267760D01*
G01X11460360D02*
Y-4098430D01*
G01Y-4132290D02*
X11476230Y-4115360D01*
X11492110Y-4102660D01*
X11514340Y-4098430D01*
X11530210Y-4102660D01*
X11549260Y-4115360D01*
G01X11663560Y-4267760D02*
Y-4098430D01*
G01Y-4145000D02*
X11673080Y-4123830D01*
X11688960Y-4106900D01*
X11711190Y-4098430D01*
X11733410Y-4106900D01*
X11749280Y-4123830D01*
X11758810Y-4145000D01*
Y-4267760D01*
G01Y-4145000D02*
X11768340Y-4123830D01*
X11784210Y-4106900D01*
X11806430Y-4098430D01*
X11828660Y-4106900D01*
X11844540Y-4123830D01*
X11854060Y-4149230D01*
Y-4267760D01*
G01X12266810Y-4013760D02*
Y-4267760D01*
G01X12222360Y-4098430D02*
X12311260D01*
G01X12520810Y-4267760D02*
X12501760Y-4263530D01*
X12482710Y-4246600D01*
X12470010Y-4216960D01*
X12463660Y-4183100D01*
X12470010Y-4149230D01*
X12482710Y-4119590D01*
X12501760Y-4102660D01*
X12520810Y-4098430D01*
X12539860Y-4102660D01*
X12558910Y-4119590D01*
X12571610Y-4149230D01*
X12574790Y-4183100D01*
X12571610Y-4216960D01*
X12558910Y-4246600D01*
X12539860Y-4263530D01*
X12520810Y-4267760D01*
G01X12717660Y-4352420D02*
Y-4098430D01*
G01Y-4136520D02*
X12733540Y-4115360D01*
X12749410Y-4102660D01*
X12774810Y-4098430D01*
X12797030Y-4102660D01*
X12819260Y-4123830D01*
X12828790Y-4153460D01*
X12831960Y-4183100D01*
X12828790Y-4212730D01*
X12819260Y-4242370D01*
X12800210Y-4259300D01*
X12774810Y-4267760D01*
X12752590Y-4263530D01*
X12730360Y-4250830D01*
X12717660Y-4233900D01*
G01X13235190Y-4238130D02*
X13251060Y-4255060D01*
X13273280Y-4267760D01*
X13292340D01*
X13311390Y-4259300D01*
X13324080Y-4246600D01*
X13330430Y-4229670D01*
X13327260Y-4204260D01*
X13314560Y-4191560D01*
X13257410Y-4166170D01*
X13244710Y-4136520D01*
X13251060Y-4115360D01*
X13263760Y-4102660D01*
X13282810Y-4098430D01*
X13301860Y-4102660D01*
X13320910Y-4115360D01*
G01X13536810Y-4098430D02*
Y-4267760D01*
G01Y-4030700D02*
X13530460Y-4026470D01*
Y-4017990D01*
X13536810Y-4013760D01*
X13543160Y-4017990D01*
Y-4026470D01*
X13536810Y-4030700D01*
G01X13847960Y-4013760D02*
Y-4267760D01*
G01Y-4229670D02*
X13835260Y-4250830D01*
X13816210Y-4263530D01*
X13793990Y-4267760D01*
X13768590Y-4259300D01*
X13749540Y-4238130D01*
X13736830Y-4212730D01*
X13733660Y-4183100D01*
X13736830Y-4153460D01*
X13749540Y-4128060D01*
X13768590Y-4106900D01*
X13793990Y-4098430D01*
X13816210Y-4102660D01*
X13832080Y-4111130D01*
X13847960Y-4128060D01*
G01X13997190Y-4153460D02*
X14098790D01*
X14089260Y-4123830D01*
X14073390Y-4106900D01*
X14051160Y-4098430D01*
X14028940Y-4102660D01*
X14009880Y-4115360D01*
X13997190Y-4145000D01*
X13990830Y-4170400D01*
Y-4195790D01*
X13997190Y-4221200D01*
X14013060Y-4246600D01*
X14032110Y-4263530D01*
X14054340Y-4267760D01*
X14076560Y-4259300D01*
X14098790Y-4233900D01*
G01X9130070Y-3406370D02*
Y-3152370D01*
X9276110Y-3406370D01*
Y-3152370D01*
G01X9418990D02*
X9495180D01*
G01X9457090D02*
Y-3406370D01*
G01X9418990D02*
X9495180D01*
G01X9638070D02*
Y-3152370D01*
X9784110Y-3406370D01*
Y-3152370D01*
G01X9885710Y-3406370D02*
X9965090Y-3152370D01*
X10044470Y-3406370D01*
G01X10015890Y-3317470D02*
X9914290D01*
G01X10498490Y-3270900D02*
X10511190Y-3258200D01*
X10520710Y-3237040D01*
X10527070Y-3207400D01*
X10520710Y-3182000D01*
X10508020Y-3165080D01*
X10485790Y-3152370D01*
X10400070D01*
Y-3406370D01*
X10504840D01*
X10527070Y-3389440D01*
X10539770Y-3364040D01*
X10546110Y-3334400D01*
X10539770Y-3304780D01*
X10520710Y-3279370D01*
X10498490Y-3270900D01*
X10400070D01*
G01X10727090Y-3406370D02*
Y-3152370D01*
G01X10927110Y-3237040D02*
Y-3355570D01*
X10939820Y-3385210D01*
X10958870Y-3402140D01*
X10981090Y-3406370D01*
X11003310Y-3402140D01*
X11022360Y-3385210D01*
X11035070Y-3355570D01*
G01Y-3406370D02*
Y-3237040D01*
G01X11187470Y-3292070D02*
X11289070D01*
X11279540Y-3262440D01*
X11263670Y-3245510D01*
X11241440Y-3237040D01*
X11219220Y-3241270D01*
X11200160Y-3253970D01*
X11187470Y-3283610D01*
X11181110Y-3309010D01*
Y-3334400D01*
X11187470Y-3359810D01*
X11203340Y-3385210D01*
X11222390Y-3402140D01*
X11244620Y-3406370D01*
X11266840Y-3397910D01*
X11289070Y-3372510D01*
G01X11431940Y-3491030D02*
Y-3237040D01*
G01Y-3275130D02*
X11447820Y-3253970D01*
X11463690Y-3241270D01*
X11489090Y-3237040D01*
X11511310Y-3241270D01*
X11533540Y-3262440D01*
X11543070Y-3292070D01*
X11546240Y-3321710D01*
X11543070Y-3351340D01*
X11533540Y-3380980D01*
X11514490Y-3397910D01*
X11489090Y-3406370D01*
X11466870Y-3402140D01*
X11444640Y-3389440D01*
X11431940Y-3372510D01*
G01X11698640Y-3406370D02*
Y-3237040D01*
G01Y-3270900D02*
X11714510Y-3253970D01*
X11730390Y-3241270D01*
X11752620Y-3237040D01*
X11768490Y-3241270D01*
X11787540Y-3253970D01*
G01X11997090Y-3237040D02*
Y-3406370D01*
G01Y-3169310D02*
X11990740Y-3165080D01*
Y-3156600D01*
X11997090Y-3152370D01*
X12003440Y-3156600D01*
Y-3165080D01*
X11997090Y-3169310D01*
G01X12197110Y-3406370D02*
Y-3237040D01*
G01Y-3279370D02*
X12209820Y-3258200D01*
X12228870Y-3241270D01*
X12254270Y-3237040D01*
X12276490Y-3241270D01*
X12295540Y-3258200D01*
X12305070Y-3287840D01*
Y-3406370D01*
G01X12505090Y-3152370D02*
Y-3406370D01*
G01X12460640Y-3237040D02*
X12549540D01*
G01X9359300Y12689790D02*
Y12943790D01*
X9422800D01*
X9448200Y12931080D01*
X9467250Y12914160D01*
X9483130Y12888760D01*
X9495830Y12859120D01*
X9499000Y12816790D01*
X9495830Y12774450D01*
X9483130Y12744820D01*
X9467250Y12719420D01*
X9448200Y12702490D01*
X9422800Y12689790D01*
X9359300D01*
G01X9746650D02*
X9619650D01*
Y12943790D01*
X9746650D01*
G01X9695850Y12821030D02*
X9619650D01*
G01X9870470Y12723650D02*
X9895880Y12702490D01*
X9924450Y12689790D01*
X9949850D01*
X9975250Y12702490D01*
X9994300Y12723650D01*
X10003830Y12753290D01*
X9997480Y12782920D01*
X9981600Y12808320D01*
X9953020Y12825260D01*
X9914930Y12833720D01*
X9892700Y12850650D01*
X9883170Y12880290D01*
X9889530Y12909920D01*
X9905400Y12931080D01*
X9927620Y12943790D01*
X9949850D01*
X9972080Y12935330D01*
X9991130Y12914160D01*
G01X10261000Y12922620D02*
X10241950Y12935330D01*
X10219730Y12943790D01*
X10194330D01*
X10165750Y12931080D01*
X10143530Y12909920D01*
X10127650Y12884520D01*
X10114950Y12842190D01*
X10111770Y12804090D01*
X10118130Y12765990D01*
X10127650Y12740590D01*
X10146700Y12715180D01*
X10168930Y12698250D01*
X10191150Y12689790D01*
X10213370D01*
X10235600Y12698250D01*
X10254650Y12710950D01*
X10270530Y12727880D01*
G01X10381650Y12689790D02*
Y12943790D01*
X10461020D01*
X10486420Y12931080D01*
X10502300Y12914160D01*
X10508650Y12880290D01*
X10502300Y12846420D01*
X10483250Y12825260D01*
X10461020Y12812550D01*
X10381650D01*
G01X10461020D02*
X10508650Y12689790D01*
G01X10661050Y12943790D02*
X10737240D01*
G01X10699150D02*
Y12689790D01*
G01X10661050D02*
X10737240D01*
G01X10889650D02*
Y12943790D01*
X10965850D01*
X10991250Y12931080D01*
X11010300Y12901460D01*
X11016650Y12867590D01*
X11010300Y12833720D01*
X10994420Y12808320D01*
X10965850Y12795620D01*
X10889650D01*
G01X11207150Y12943790D02*
Y12689790D01*
G01X11134130Y12943790D02*
X11280170D01*
G01X11423050D02*
X11499240D01*
G01X11461150D02*
Y12689790D01*
G01X11423050D02*
X11499240D01*
G01X11715150D02*
X11689750Y12694020D01*
X11667530Y12710950D01*
X11648470Y12736350D01*
X11635770Y12765990D01*
X11629420Y12799860D01*
Y12833720D01*
X11635770Y12867590D01*
X11648470Y12897230D01*
X11667530Y12922620D01*
X11689750Y12939560D01*
X11715150Y12943790D01*
X11740550Y12939560D01*
X11762770Y12922620D01*
X11781830Y12897230D01*
X11794530Y12867590D01*
X11800880Y12833720D01*
Y12799860D01*
X11794530Y12765990D01*
X11781830Y12736350D01*
X11762770Y12710950D01*
X11740550Y12694020D01*
X11715150Y12689790D01*
G01X11896130D02*
Y12943790D01*
X12042170Y12689790D01*
Y12943790D01*
G01X9841900Y-5534710D02*
Y-4518710D01*
G01X10163010Y-6195770D02*
Y-5941770D01*
X10124910Y-5992570D01*
G01Y-6195770D02*
X10201100D01*
G01X10417010Y-6204230D02*
X10410660Y-6200000D01*
Y-6191540D01*
X10417010Y-6187310D01*
X10423360Y-6191540D01*
Y-6200000D01*
X10417010Y-6204230D01*
G01Y-6089940D02*
X10410660Y-6085700D01*
Y-6077240D01*
X10417010Y-6073010D01*
X10423360Y-6077240D01*
Y-6085700D01*
X10417010Y-6089940D01*
G01X10671010Y-6195770D02*
Y-5941770D01*
X10632910Y-5992570D01*
G01Y-6195770D02*
X10709100D01*
G01X10857900Y-5534710D02*
Y-6296710D01*
G01X12032650Y13451790D02*
Y13705790D01*
X12112020D01*
X12137420Y13693080D01*
X12153300Y13676160D01*
X12159650Y13642290D01*
X12153300Y13608420D01*
X12134250Y13587260D01*
X12112020Y13574550D01*
X12032650D01*
G01X12112020D02*
X12159650Y13451790D01*
G01X12413650D02*
X12286650D01*
Y13705790D01*
X12413650D01*
G01X12362850Y13583030D02*
X12286650D01*
G01X12524770Y13705790D02*
X12604150Y13451790D01*
X12683530Y13705790D01*
G01X12820050D02*
X12896240D01*
G01X12858150D02*
Y13451790D01*
G01X12820050D02*
X12896240D01*
G01X13045470Y13485650D02*
X13070880Y13464490D01*
X13099450Y13451790D01*
X13124850D01*
X13150250Y13464490D01*
X13169300Y13485650D01*
X13178830Y13515290D01*
X13172480Y13544920D01*
X13156600Y13570320D01*
X13128020Y13587260D01*
X13089930Y13595720D01*
X13067700Y13612650D01*
X13058170Y13642290D01*
X13064530Y13671920D01*
X13080400Y13693080D01*
X13102620Y13705790D01*
X13124850D01*
X13147080Y13697330D01*
X13166130Y13676160D01*
G01X13328050Y13705790D02*
X13404240D01*
G01X13366150D02*
Y13451790D01*
G01X13328050D02*
X13404240D01*
G01X13620150D02*
X13594750Y13456020D01*
X13572530Y13472950D01*
X13553470Y13498350D01*
X13540770Y13527990D01*
X13534420Y13561860D01*
Y13595720D01*
X13540770Y13629590D01*
X13553470Y13659230D01*
X13572530Y13684620D01*
X13594750Y13701560D01*
X13620150Y13705790D01*
X13645550Y13701560D01*
X13667770Y13684620D01*
X13686830Y13659230D01*
X13699530Y13629590D01*
X13705880Y13595720D01*
Y13561860D01*
X13699530Y13527990D01*
X13686830Y13498350D01*
X13667770Y13472950D01*
X13645550Y13456020D01*
X13620150Y13451790D01*
G01X13801130D02*
Y13705790D01*
X13947170Y13451790D01*
Y13705790D01*
G01X14061470Y13485650D02*
X14086880Y13464490D01*
X14115450Y13451790D01*
X14140850D01*
X14166250Y13464490D01*
X14185300Y13485650D01*
X14194830Y13515290D01*
X14188480Y13544920D01*
X14172600Y13570320D01*
X14144020Y13587260D01*
X14105930Y13595720D01*
X14083700Y13612650D01*
X14074170Y13642290D01*
X14080530Y13671920D01*
X14096400Y13693080D01*
X14118620Y13705790D01*
X14140850D01*
X14163080Y13697330D01*
X14182130Y13676160D01*
G01X12889900Y-5534710D02*
Y-4518710D01*
G01X13169300Y-4899710D02*
Y-4645710D01*
X13232800D01*
X13258200Y-4658420D01*
X13277250Y-4675340D01*
X13293130Y-4700740D01*
X13305830Y-4730380D01*
X13309000Y-4772710D01*
X13305830Y-4815050D01*
X13293130Y-4844680D01*
X13277250Y-4870080D01*
X13258200Y-4887010D01*
X13232800Y-4899710D01*
X13169300D01*
G01X13397900Y-4645710D02*
X13442350Y-4899710D01*
X13493150Y-4645710D01*
X13543950Y-4899710D01*
X13588400Y-4645710D01*
G01X13766200Y-4772710D02*
X13829700D01*
Y-4848910D01*
X13810650Y-4874320D01*
X13788420Y-4891250D01*
X13756680Y-4899710D01*
X13724930Y-4891250D01*
X13702700Y-4874320D01*
X13683650Y-4848910D01*
X13670950Y-4819280D01*
X13664600Y-4785410D01*
Y-4755780D01*
X13670950Y-4730380D01*
X13683650Y-4700740D01*
X13702700Y-4675340D01*
X13721750Y-4658420D01*
X13747150Y-4645710D01*
X13769370D01*
X13794770Y-4654170D01*
X13813830Y-4671110D01*
G01X14182130Y-4899710D02*
Y-4645710D01*
X14328170Y-4899710D01*
Y-4645710D01*
G01X14509150Y-4899710D02*
X14483750Y-4895480D01*
X14461530Y-4878550D01*
X14442470Y-4853150D01*
X14429770Y-4823510D01*
X14423420Y-4789640D01*
Y-4755780D01*
X14429770Y-4721910D01*
X14442470Y-4692270D01*
X14461530Y-4666880D01*
X14483750Y-4649940D01*
X14509150Y-4645710D01*
X14534550Y-4649940D01*
X14556770Y-4666880D01*
X14575830Y-4692270D01*
X14588530Y-4721910D01*
X14594880Y-4755780D01*
Y-4789640D01*
X14588530Y-4823510D01*
X14575830Y-4853150D01*
X14556770Y-4878550D01*
X14534550Y-4895480D01*
X14509150Y-4899710D01*
G01X14525810Y-5069560D02*
X14500410Y-5078020D01*
X14481360Y-5099190D01*
X14468660Y-5124590D01*
X14459130Y-5158460D01*
X14455960Y-5196560D01*
X14459130Y-5234660D01*
X14468660Y-5268530D01*
X14481360Y-5293930D01*
X14500410Y-5315100D01*
X14525810Y-5323560D01*
X14551210Y-5315100D01*
X14570260Y-5293930D01*
X14582960Y-5268530D01*
X14592490Y-5234660D01*
X14595660Y-5196560D01*
X14592490Y-5158460D01*
X14582960Y-5124590D01*
X14570260Y-5099190D01*
X14551210Y-5078020D01*
X14525810Y-5069560D01*
G01X14779810Y-5323560D02*
Y-5069560D01*
X14741710Y-5120360D01*
G01Y-5323560D02*
X14817900D01*
G01X14921900Y-6296710D02*
Y-5534710D01*
X19239900D01*
G01X15204470Y-5881850D02*
X15229880Y-5903010D01*
X15258450Y-5915710D01*
X15283850D01*
X15309250Y-5903010D01*
X15328300Y-5881850D01*
X15337830Y-5852210D01*
X15331480Y-5822580D01*
X15315600Y-5797180D01*
X15287020Y-5780240D01*
X15248930Y-5771780D01*
X15226700Y-5754850D01*
X15217170Y-5725210D01*
X15223530Y-5695580D01*
X15239400Y-5674420D01*
X15261620Y-5661710D01*
X15283850D01*
X15306080Y-5670170D01*
X15325130Y-5691340D01*
G01X15458470Y-5915710D02*
Y-5661710D01*
G01X15591830D02*
Y-5915710D01*
G01Y-5788710D02*
X15458470D01*
G01X15842650Y-5915710D02*
X15715650D01*
Y-5661710D01*
X15842650D01*
G01X15791850Y-5784470D02*
X15715650D01*
G01X16096650Y-5915710D02*
X15969650D01*
Y-5661710D01*
X16096650D01*
G01X16045850Y-5784470D02*
X15969650D01*
G01X16287150Y-5661710D02*
Y-5915710D01*
G01X16214130Y-5661710D02*
X16360170D01*
G01X16069390Y5709310D02*
Y13209300D01*
G01X16218540Y12724640D02*
Y12978640D01*
X16282040D01*
X16307440Y12965930D01*
X16326490Y12949010D01*
X16342370Y12923610D01*
X16355070Y12893970D01*
X16358240Y12851640D01*
X16355070Y12809300D01*
X16342370Y12779670D01*
X16326490Y12754270D01*
X16307440Y12737340D01*
X16282040Y12724640D01*
X16218540D01*
G01X16463010D02*
X16542390Y12978640D01*
X16621770Y12724640D01*
G01X16593190Y12813540D02*
X16491590D01*
G01X16796390Y12978640D02*
Y12724640D01*
G01X16723370Y12978640D02*
X16869410D01*
G01X17113890Y12724640D02*
X16986890D01*
Y12978640D01*
X17113890D01*
G01X17063090Y12855880D02*
X16986890D01*
G01X17869390Y5709310D02*
Y13209300D01*
G01X17982010Y12724640D02*
X18061390Y12978640D01*
X18140770Y12724640D01*
G01X18112190Y12813540D02*
X18010590D01*
G01X18251890Y12724640D02*
Y12978640D01*
X18328090D01*
X18353490Y12965930D01*
X18372540Y12936310D01*
X18378890Y12902440D01*
X18372540Y12868570D01*
X18356660Y12843170D01*
X18328090Y12830470D01*
X18251890D01*
G01X18505890Y12724640D02*
Y12978640D01*
X18582090D01*
X18607490Y12965930D01*
X18626540Y12936310D01*
X18632890Y12902440D01*
X18626540Y12868570D01*
X18610660Y12843170D01*
X18582090Y12830470D01*
X18505890D01*
G01X18759890Y12724640D02*
Y12978640D01*
X18839260D01*
X18864660Y12965930D01*
X18880540Y12949010D01*
X18886890Y12915140D01*
X18880540Y12881270D01*
X18861490Y12860110D01*
X18839260Y12847400D01*
X18759890D01*
G01X18839260D02*
X18886890Y12724640D01*
G01X19077390Y12716180D02*
X19071040Y12720410D01*
Y12728870D01*
X19077390Y12733100D01*
X19083740Y12728870D01*
Y12720410D01*
X19077390Y12716180D01*
M02*
